<svg xmlns="http://www.w3.org/2000/svg" xmlns:xlink="http://www.w3.org/1999/xlink" viewBox="0 0 500 30"><defs><style>.cls-1{isolation:isolate;}.cls-2{fill:#0b0b0b;}.cls-3{fill:#fbd501;}.cls-4{fill:#0d56a3;}.cls-5{fill:#d11f53;}.cls-6{fill:#e0136e;}.cls-7{fill:#9e1c3a;}.cls-8{fill:#221f1f;}.cls-9{fill:#c3161c;}.cls-10{fill:#231f20;}.cls-11{fill:#f89c1c;}.cls-12,.cls-13,.cls-14,.cls-15,.cls-31{fill:none;}.cls-12,.cls-13,.cls-14,.cls-15,.cls-16,.cls-17,.cls-18{stroke:#231f20;}.cls-12,.cls-13,.cls-16,.cls-18{stroke-width:0.1px;}.cls-13{opacity:0.41;mix-blend-mode:soft-light;}.cls-14{stroke-width:0.23px;stroke-dasharray:0.1 0.14;}.cls-15{stroke-width:0.3px;stroke-dasharray:0.19 0.14;}.cls-16{fill:#dfe0e1;}.cls-17,.cls-18,.cls-19{fill:#fff;}.cls-17{stroke-width:0.05px;}.cls-20,.cls-21{fill:#8b3392;}.cls-20{fill-rule:evenodd;}.cls-22{fill:#e82429;}.cls-23{fill:#f48120;}.cls-24{fill:#00afd8;}.cls-25{fill:#006e90;}.cls-26{fill:url(#linear-gradient);}.cls-27{fill:url(#linear-gradient-2);}.cls-28{fill:url(#linear-gradient-3);}.cls-29{fill:#66cde7;}.cls-30{fill:#d92b2b;}</style><linearGradient id="linear-gradient" x1="-10.7" y1="68.7" x2="-8.42" y2="68.7" gradientTransform="matrix(4.88, 0, 0, -4.88, 479.74, 343.33)" gradientUnits="userSpaceOnUse"><stop offset="0" stop-color="#41e700" stop-opacity="0"/><stop offset="0.74" stop-color="#3acd00"/><stop offset="0.78" stop-color="#36be00"/><stop offset="0.93" stop-color="#299100"/><stop offset="1" stop-color="#248000"/></linearGradient><linearGradient id="linear-gradient-2" x1="-10.7" y1="67.99" x2="-8.42" y2="67.99" xlink:href="#linear-gradient"/><linearGradient id="linear-gradient-3" x1="-10.7" y1="67.22" x2="-8.42" y2="67.22" xlink:href="#linear-gradient"/></defs><g class="cls-1"><g id="Layer_1" data-name="Layer 1"><path class="cls-2" d="M262.33,21.71c0-.28-.11-.42-.4-.42-.92,0-1.84,0-2.76,0-.27,0-.39.13-.38.4s0,.37,0,.63a3.56,3.56,0,0,0-2.88-.9c-1.26.1-1.65.87-1,1.92a1.53,1.53,0,0,1,.18.39,2,2,0,0,1-.12,1.35.77.77,0,0,0,.31,1.06.93.93,0,0,0,1,.05,11,11,0,0,0,2.47-1.71.68.68,0,0,1,0,.12c0,.52,0,1,0,1.56,0,.85,0,.82.82.81.46,0,.51,0,.51-.53,0-1.17,0-2.34,0-3.51,0-.33.14-.37.41-.35s.49-.08.48.34c0,1.06,0,2.11,0,3.17s0,.93.94.88c.27,0,.39-.12.39-.39C262.32,25,262.32,23.33,262.33,21.71Zm-4.21,1.69a5.48,5.48,0,0,1-1.84,1.37,3.52,3.52,0,0,1,.14-.77,1.29,1.29,0,0,0-.25-1c-.19-.26-.14-.36.16-.37a3.37,3.37,0,0,1,1.65.41C258.11,23.13,258.27,23.22,258.12,23.4Z"/><path class="cls-2" d="M253.76,23.38l-.63.15c-.84.19-.92.12-.88-.75,0-.17.06-.21.21-.2.39,0,.77,0,1.16,0,.73,0,.75,0,.74-.77v-.1c0-.27-.13-.42-.42-.42s-.34,0-.54,0c.24-1-.06-1.56-.86-1.75a2,2,0,0,0-.81,0,2.31,2.31,0,0,1-1.95-.19c-.2-.15-.38,0-.48.19a.82.82,0,0,0,.7,1.25,5.31,5.31,0,0,0,1.82-.1c.26-.05.51.1.5.31s-.22.27-.42.27h-2c-.87,0-.86,0-.85.88,0,.29.11.42.4.41.44,0,.88,0,1.32,0,.21,0,.28,0,.27.25,0,.43,0,.86,0,1.29s.18.65.63.72a4.92,4.92,0,0,0,1.15-.09c.09,0,.19-.11.28,0s0,.22-.05.31a1.38,1.38,0,0,1-1.21.62,1.22,1.22,0,0,1-1.49-1.07,4.54,4.54,0,0,1-.08-1c0-.7,0-.7-.7-.7h-.07c-.26,0-.39.1-.44.36a4.44,4.44,0,0,0,0,1.78A2.36,2.36,0,0,0,251.88,27c2.14-.16,2.69-1.51,2.44-3.23A.44.44,0,0,0,253.76,23.38Z"/><path class="cls-2" d="M267.84,21.71c0-.28-.12-.42-.41-.42h-4.31c-.25,0-.38.11-.38.37s0,.71,0,1.06c0,.71.15.85.85,1,.2,0,.47,0,.5.27s-.24.3-.42.36c-1.15.38-.89.53-.94,1.4v.1c0,.33.07.71.45.8s.84.21,1.2-.16a1.06,1.06,0,0,1,1.63.14c.05.06.08.16.14.19a1.5,1.5,0,0,0,1.21.09.93.93,0,0,0,.48-.91V23.89C267.84,23.16,267.83,22.44,267.84,21.71Zm-1.58,3.79a7.24,7.24,0,0,0-1.61-.13c-.13,0-.28,0-.32-.12s.11-.23.24-.28a2.51,2.51,0,0,0,.61-.36.86.86,0,0,0-.25-1.53,4.29,4.29,0,0,1-.5-.19.21.21,0,0,1-.13-.25c0-.1.14-.06.21-.06h.81c.24,0,.48,0,.72,0s.41.12.42.39l0,1.32c0,.32,0,.63.05.95S266.48,25.54,266.26,25.5Z"/><path class="cls-2" d="M265.15,26.35a.86.86,0,0,0-.88.87.87.87,0,1,0,.88-.87Z"/><circle class="cls-3" cx="252.09" cy="4.38" r="2.47"/><circle class="cls-4" cx="264.64" cy="4.38" r="2.47"/><path class="cls-4" d="M256.25,16.27a2.14,2.14,0,0,0,.73,1.84,2.21,2.21,0,0,0,1.42.55,11.78,11.78,0,0,0,3.85-.56A7.05,7.05,0,0,0,267.14,11V9.92a1.4,1.4,0,0,0-.31-.87,1.36,1.36,0,0,0-1-.47h-1.95a1.33,1.33,0,0,0-1.05.49,1.39,1.39,0,0,0-.3.85V11a3.33,3.33,0,0,1-.38,1.64,2.69,2.69,0,0,1-1.42,1.18,7.89,7.89,0,0,1-2.42.48,2.19,2.19,0,0,0-1.32.56,2.16,2.16,0,0,0-.71,1.41Z"/><path class="cls-3" d="M260.5,16.27a2.16,2.16,0,0,1-.72,1.84,2.24,2.24,0,0,1-1.43.55,11.68,11.68,0,0,1-3.84-.56,7.05,7.05,0,0,1-4.9-7.08V9.92a1.4,1.4,0,0,1,.31-.87,1.36,1.36,0,0,1,1-.47h2a1.33,1.33,0,0,1,1.35,1.34V11a3.45,3.45,0,0,0,.38,1.64,2.71,2.71,0,0,0,1.43,1.18,7.82,7.82,0,0,0,2.41.48,2.17,2.17,0,0,1,1.32.56,2.12,2.12,0,0,1,.71,1.41Z"/><polygon class="cls-5" points="61.94 14.69 63.31 20.88 72.31 16.32 61.94 14.69"/><polygon class="cls-6" points="64.49 5.46 61.94 14.7 72.31 16.32 64.49 5.46"/><polygon class="cls-5" points="53.5 4.1 64.23 5.38 61.7 14.57 53.5 4.1"/><polygon class="cls-7" points="53.41 5.91 54.61 5.91 57.96 10.2 53.41 5.91"/><polygon class="cls-5" points="72.6 16.26 69.48 11.95 74.53 11.04 72.6 16.26"/><polygon class="cls-6" points="72.08 17.53 72.4 16.57 64.52 20.57 72.08 17.53"/><polygon class="cls-7" points="61.72 14.94 63.36 22.33 58.48 26.29 61.72 14.94"/><polygon class="cls-6" points="74.03 13.24 76.9 13.19 74.83 11.08 74.03 13.24"/><path class="cls-6" d="M28.54,11.94A3,3,0,0,0,29,12a3.28,3.28,0,0,0,.43,0v4.6a2.14,2.14,0,0,1,1.86-1.28c1.52,0,2.17,1.5,2.17,2.88,0,1.65-.89,3.23-2.43,3.23a1.7,1.7,0,0,1-1.52-.88c-.26.23-.49.5-.73.75h-.2Zm.84,6.76C29.38,20,30,21,30.88,21c1.21,0,1.6-1.63,1.6-2.78,0-1.34-.44-2.4-1.49-2.41-1.22,0-1.61,1.44-1.61,2.92"/><path class="cls-8" d="M37.38,14.92l-.92,1.17c.86,1.25,1.75,2.48,2.61,3.75l.87,1.37v.07c-.21,0-.41,0-.59,0s-.4,0-.6,0A11.6,11.6,0,0,0,38,20l-2.34-3.48c-.06,0-.18-.1-.18,0v4.76a4.43,4.43,0,0,0-.48,0,3.89,3.89,0,0,0-.47,0V11.94A3.75,3.75,0,0,0,35,12a4.35,4.35,0,0,0,.48-.05v4.22c0,.08.16,0,.26-.09a5.18,5.18,0,0,0,.57-.67L39,11.94c.14,0,.28,0,.43,0s.27,0,.42,0Z"/><path class="cls-8" d="M44.48,20.23c0,.48,0,.73.6.57v.27a1.75,1.75,0,0,1-.32.12c-.56.11-1,0-1.11-.72l-.09.11a2,2,0,0,1-1.59.78,1.44,1.44,0,0,1-1.43-1.51c0-1.42,1-1.6,2-1.79.85-.16,1.14-.23,1.14-.83,0-.92-.45-1.45-1.25-1.45a1.36,1.36,0,0,0-1.28.85H41v-.69a2.8,2.8,0,0,1,1.74-.68c1.13,0,1.74.68,1.74,2.09Zm-.86-2.05-.38.08c-.73.16-1.82.29-1.82,1.42,0,.78.39,1.17,1,1.17a1.35,1.35,0,0,0,.87-.47c.08-.09.29-.31.29-.4Z"/><path class="cls-8" d="M46.39,20.06a1.56,1.56,0,0,0,1.23.92,1.11,1.11,0,0,0,1.06-1.13c0-1.67-2.54-.58-2.54-2.75a1.7,1.7,0,0,1,1.75-1.84,2.31,2.31,0,0,1,1.21.32,6.92,6.92,0,0,0-.25.89h-.1a1.13,1.13,0,0,0-.91-.82,1,1,0,0,0-1,1c0,1.59,2.53.74,2.53,2.73a1.88,1.88,0,0,1-2,1.95A2.44,2.44,0,0,1,46.08,21a5.49,5.49,0,0,0,.22-.91Z"/><path class="cls-8" d="M50.84,11.94a3,3,0,0,0,.43,0,3.28,3.28,0,0,0,.43,0v4.52a1.93,1.93,0,0,1,1.73-1.2c1.24,0,1.73.86,1.73,2.42v3.6a3.62,3.62,0,0,0-.43,0,3,3,0,0,0-.43,0V18c0-1.37-.28-2.06-1.19-2.06s-1.41.7-1.41,2v3.39a3.44,3.44,0,0,0-.43,0,3.13,3.13,0,0,0-.43,0Z"/><polygon class="cls-9" points="303.11 20.17 303.2 19.78 308.75 19.78 308.67 20.17 303.11 20.17 303.11 20.17"/><polygon class="cls-9" points="309.2 20.17 309.29 19.78 326.58 19.78 326.49 20.17 309.2 20.17 309.2 20.17"/><path class="cls-10" d="M304.82,23.3h-1.64l-.12-.15h1.64Zm-.32.62a.74.74,0,0,1-.28.47l-.1.07a.31.31,0,0,1-.1.05l-.19,0a.46.46,0,0,1-.31-.1.74.74,0,0,1-.12-.16,1.11,1.11,0,0,1-.15-.4,3.27,3.27,0,0,1-.07-.44l.08,0a1.28,1.28,0,0,0,.26.68.51.51,0,0,0,.38.16.5.5,0,0,0,.42-.28.29.29,0,0,0,0-.17c0-.09,0-.13-.05-.13l-.09.09a.68.68,0,0,1-.23.12l-.14,0a.32.32,0,0,1-.27-.13s0-.09,0-.17a.27.27,0,0,1,.1-.17.25.25,0,0,1,.19-.05.12.12,0,0,1,.1.05.18.18,0,0,1,0,.12.42.42,0,0,1-.09.15h0s.11,0,.22-.13a1,1,0,0,0,.14-.17h0s.08.06.14.17A.55.55,0,0,1,304.5,23.92Z"/><path class="cls-10" d="M305.38,23.3H305l-.26,1.5-.11-.15.19-1.07a.23.23,0,0,0,0-.15.2.2,0,0,0-.2-.13h0l-.12-.15h.23c.09,0,.15.08.18.19a1.06,1.06,0,0,1,0,.18c0-.11,0-.24,0-.4s0-.14,0-.23l0,.05a.71.71,0,0,0,0,.15l0,.06h.21Z"/><path class="cls-10" d="M306.22,23.29a.79.79,0,0,0-.24.05l-.23.12a.92.92,0,0,0-.33.47.94.94,0,0,0-.06.36.35.35,0,0,0,.16.3h.06s0,0,0,0,0,0,0-.05a.17.17,0,0,1,0-.07.19.19,0,0,1,.12-.17l.09,0a.09.09,0,0,1,.07,0,.13.13,0,0,1,.06.16.28.28,0,0,1-.1.17.33.33,0,0,1-.19.06.24.24,0,0,1-.2-.07.57.57,0,0,1-.17-.41.75.75,0,0,1,0-.21,1.28,1.28,0,0,1,.41-.71h-.43l-.12-.15h1Z"/><path class="cls-10" d="M307.67,23.29h-.35l-.26,1.47-.12-.14.14-.79a.16.16,0,0,0,0-.14.17.17,0,0,0-.13-.05.16.16,0,0,0-.08.06.14.14,0,0,0,0,.1v.07l-.06,0a.14.14,0,0,0,0-.07l-.06-.11a.23.23,0,0,0-.19-.08.31.31,0,0,0-.19.08.25.25,0,0,0-.11.17c0,.12,0,.18.15.21a.17.17,0,0,1,0-.12.19.19,0,0,1,.07-.11.16.16,0,0,1,.12,0c.07,0,.11,0,.13.12a.36.36,0,0,1,0,.15.27.27,0,0,1-.24.13.36.36,0,0,1-.24-.07.35.35,0,0,1-.1-.22.37.37,0,0,1,0-.11.57.57,0,0,1,.13-.27.33.33,0,0,1,.25-.13.3.3,0,0,1,.24.11l0,.07s0-.07.08-.11a.22.22,0,0,1,.12-.06.17.17,0,0,1,.12,0l0,.06a.32.32,0,0,1,.05.14l.06-.4h-1.09l-.12-.14h1.59Z"/><path class="cls-10" d="M308.25,23.3h-.36l-.26,1.5-.11-.15.19-1.07a.24.24,0,0,0,0-.15.23.23,0,0,0-.21-.13h0l-.12-.15h.22a.2.2,0,0,1,.18.19s0,.09,0,.18a1.93,1.93,0,0,1,0-.4,1.11,1.11,0,0,1,0-.23l.05.05a.37.37,0,0,0,0,.15.09.09,0,0,0,0,.06h.21Z"/><path class="cls-10" d="M310.35,23.3H310l-.26,1.46-.06-.12-.06-.13a.68.68,0,0,0-.35-.31.62.62,0,0,0-.25,0l-.17-.3H309l.17,0,.18-.07c.17-.09.26-.18.28-.28a.14.14,0,0,0,0-.13.13.13,0,0,0-.12-.05h-.07c-.11,0-.17.08-.19.12a.22.22,0,0,1,.05.14.21.21,0,0,1-.08.11.2.2,0,0,1-.13,0,.14.14,0,0,1-.15-.15.31.31,0,0,1,0-.15.45.45,0,0,1,.23-.2.62.62,0,0,1,.29-.07.26.26,0,0,1,.23.12.36.36,0,0,1,.05.27.72.72,0,0,1-.41.47l.15.1a.79.79,0,0,1,.13.13.91.91,0,0,1,.12.17l.26-1.53L310,23v0c0,.08,0,.12,0,.14h.18Z"/><path class="cls-10" d="M310.93,23.3h-.36l-.26,1.5-.11-.15.19-1.07a.24.24,0,0,0,0-.15.23.23,0,0,0-.21-.13h0l-.12-.15h.22a.2.2,0,0,1,.18.19s0,.09,0,.18a1.93,1.93,0,0,1,0-.4,1.11,1.11,0,0,1,0-.23l.05.05a.37.37,0,0,0,0,.15.09.09,0,0,0,0,.06h.21Z"/><path class="cls-10" d="M312.53,23.3h-.76v.1h0a.35.35,0,0,1,.29.14.45.45,0,0,1,.12.31.48.48,0,0,1,0,.12.48.48,0,0,1-.09.19.26.26,0,0,1-.19.09.17.17,0,0,1-.12-.05.15.15,0,0,1,0-.13.22.22,0,0,1,.1-.14l.09,0s.08,0,.13.08a0,0,0,0,1,0,0,.33.33,0,0,0-.37-.36l-.2,1.14,0,0,0-.13a.53.53,0,0,0-.09-.19.9.9,0,0,0-.14-.17.66.66,0,0,0-.33-.12l-.15-.24a2.08,2.08,0,0,1,.29-.19,3,3,0,0,1,.58-.24l0-.11h-.86l-.12-.15h1.76Zm-1.08,1.05.13-.75a1.65,1.65,0,0,0-.35.16l-.2.13A.76.76,0,0,1,311.45,24.35Z"/><path class="cls-10" d="M312.17,25.23v0h0a1.12,1.12,0,0,0-.22-.26.38.38,0,0,0-.1-.09l-.14.11a.23.23,0,0,1-.14,0,.29.29,0,0,1-.16,0,.14.14,0,0,1-.07-.13.23.23,0,0,1,.09-.19.35.35,0,0,1,.2-.07.34.34,0,0,1,.19.08s0,0,0,0a.66.66,0,0,1,0-.11.19.19,0,0,0,0-.08h0s.05,0,.07.08a.69.69,0,0,1,0,.13v.12a.6.6,0,0,1,.11.12A.46.46,0,0,1,312.17,25.23Zm-.48-.42s-.06,0-.13,0-.13,0-.13.08,0,.07.07.07l.11,0C311.67,24.86,311.7,24.84,311.69,24.81Z"/><path class="cls-10" d="M314.15,23.3h-.76l0,.1h0a.37.37,0,0,1,.29.14.56.56,0,0,1,.12.31.49.49,0,0,1,0,.12.37.37,0,0,1-.09.19.25.25,0,0,1-.19.09.16.16,0,0,1-.11-.05.16.16,0,0,1,0-.13.24.24,0,0,1,.11-.14l.08,0a.19.19,0,0,1,.13.08v0a.3.3,0,0,0-.07-.24.28.28,0,0,0-.29-.12l-.2,1.14-.05,0,0-.13a.4.4,0,0,0-.09-.19.63.63,0,0,0-.14-.17.66.66,0,0,0-.32-.12l-.16-.24a2.2,2.2,0,0,1,.3-.19,2.68,2.68,0,0,1,.57-.24l0-.11h-.86l-.12-.15H314Zm-1.08,1.05.13-.75a1.75,1.75,0,0,0-.36.16l-.2.13A.81.81,0,0,1,313.07,24.35Z"/><path class="cls-10" d="M316.5,23.3h-.24L316,24.76l-.05,0a1.11,1.11,0,0,0-.21-.56.47.47,0,0,1-.37.21c-.19,0-.34-.12-.45-.37a1.5,1.5,0,0,1-.14-.64l.08,0a2,2,0,0,0,.14.48.4.4,0,0,0,.38.24.37.37,0,0,0,.21-.06.27.27,0,0,0,.1-.18.48.48,0,0,0,0-.17c0-.07-.05-.1-.09-.1a.24.24,0,0,1-.22.15.2.2,0,0,1-.15-.06.14.14,0,0,1,0-.14.23.23,0,0,1,.11-.15.41.41,0,0,1,.19-.05.35.35,0,0,1,.3.16.43.43,0,0,1,.08.36.19.19,0,0,1,0,.07l.09.29.17-.94h-1.35l-.12-.15h1.73Z"/><path class="cls-10" d="M317.19,23.3h-.36l-.26,1.5-.11-.15.19-1.07a.24.24,0,0,0,0-.15.23.23,0,0,0-.21-.13h0l-.12-.15h.22a.2.2,0,0,1,.18.19s0,.09,0,.18a1.93,1.93,0,0,1,0-.4,1.11,1.11,0,0,1,0-.23l.05.05a.37.37,0,0,0,0,.15.09.09,0,0,0,0,.06h.21Z"/><path class="cls-10" d="M318.71,23.3h-.36l-.25,1.45L318,24.6l.15-.74a1,1,0,0,0,0-.15.32.32,0,0,0-.08-.13l-.56.49-.2-.07.15-.14s0-.06,0-.12,0-.1-.07-.1l-.19.05a.06.06,0,0,1-.07,0,.13.13,0,0,1,0-.08l0-.08a.78.78,0,0,1,.58-.33.44.44,0,0,1,.29.11.61.61,0,0,1,.16.27,1.12,1.12,0,0,1,0,.22l0-.38.06-.46.07.06v0a.13.13,0,0,0,0,.11l0,0h.19Zm-.79.13-.07-.07a.23.23,0,0,0-.13,0,.4.4,0,0,0-.35.18c.07,0,.11,0,.13.06a.32.32,0,0,1,0,.16l0,0Z"/><path class="cls-10" d="M320,23.3h-.35l-.26,1.49,0-.07a1,1,0,0,0,0-.31.9.9,0,0,0-.18-.52.27.27,0,0,0-.22-.1s0,0,0,0l0,.06a.29.29,0,0,1,0,.09.26.26,0,0,1-.06.18.24.24,0,0,1-.17.06c-.15,0-.22-.07-.22-.21v-.06a.39.39,0,0,1,.14-.23.39.39,0,0,1,.26-.1c.17,0,.3.11.38.33l.05.14.13-.76h-1l-.12-.15h1.46Z"/><path class="cls-10" d="M320.54,23.3h-.36l-.26,1.5-.11-.15.19-1.07a.24.24,0,0,0,0-.15.23.23,0,0,0-.21-.13h0l-.12-.15h.22a.2.2,0,0,1,.18.19s0,.09,0,.18a1.93,1.93,0,0,1,0-.4,1.11,1.11,0,0,1,0-.23l.05.05a.37.37,0,0,0,0,.15.09.09,0,0,0,0,.06h.21Z"/><path class="cls-10" d="M321.74,23.3h-.33l-.25,1.45-.05-.06-.08-.23a.56.56,0,0,0-.21-.27.62.62,0,0,0-.34-.11l-.14-.26a3.9,3.9,0,0,1,.91-.43l0-.09h-.87l-.11-.15h1.33Zm-1.1,1.33a.12.12,0,0,1-.09,0,.2.2,0,0,1,0-.08.17.17,0,0,1,.05-.12.16.16,0,0,1,.12-.06.14.14,0,0,1,.12.12.15.15,0,0,1,0,.12A.16.16,0,0,1,320.64,24.63Zm.44-.24.13-.79-.33.13-.26.16A.81.81,0,0,1,321.08,24.39Z"/><path class="cls-10" d="M323.7,23.29h-1l-.17,1c0,.07,0,.11.09.11s.22-.09.38-.25a.42.42,0,0,0,.11-.18h0a.2.2,0,0,1-.11,0,.14.14,0,0,1-.05-.09.15.15,0,0,1,0-.09.2.2,0,0,1,.21-.14.17.17,0,0,1,.17.12.25.25,0,0,1,0,.17.62.62,0,0,1-.21.39c-.21.19-.36.28-.46.28a.2.2,0,0,1-.14,0,.29.29,0,0,1-.11-.22,1.09,1.09,0,0,1,0-.2l.14-.79h-.22l-.09-.14h1.06a.19.19,0,0,1,0-.08.1.1,0,0,0-.06-.1.19.19,0,0,0-.13,0l-.28,0h-.1a.51.51,0,0,1-.28-.08.25.25,0,0,1,0-.38s0,0,0,0h0v.06a.12.12,0,0,0-.05.07c0,.07,0,.12.11.15h.54a.53.53,0,0,1,.22.06.29.29,0,0,1,.12.34h.16Z"/><path class="cls-10" d="M324.28,23.3h-.35l-.26,1.5-.11-.15.19-1.07a.23.23,0,0,0,0-.15.2.2,0,0,0-.2-.13h0l-.12-.15h.23c.09,0,.15.08.18.19a1.06,1.06,0,0,1,0,.18c0-.11,0-.24,0-.4s0-.14,0-.23l0,.05a.71.71,0,0,0,0,.15.21.21,0,0,0,0,.06h.21Z"/><path class="cls-10" d="M325.89,23.3h-.76l0,.1h0a.35.35,0,0,1,.29.14.5.5,0,0,1,.12.31.49.49,0,0,1,0,.12.37.37,0,0,1-.09.19.23.23,0,0,1-.18.09.17.17,0,0,1-.12-.05.16.16,0,0,1,0-.13.24.24,0,0,1,.11-.14l.08,0a.19.19,0,0,1,.13.08,0,0,0,0,0,0,0,.27.27,0,0,0-.07-.24.28.28,0,0,0-.29-.12l-.2,1.14,0,0,0-.13a.53.53,0,0,0-.09-.19.89.89,0,0,0-.15-.17.66.66,0,0,0-.32-.12l-.15-.24a1.62,1.62,0,0,1,.29-.19,2.68,2.68,0,0,1,.57-.24l0-.11h-.86l-.12-.15h1.76Zm-1.08,1.05.13-.75a1.65,1.65,0,0,0-.35.16l-.21.13A.81.81,0,0,1,324.81,24.35Z"/><path class="cls-10" d="M326.47,23.3h-.35l-.27,1.5-.11-.15.19-1.07a.24.24,0,0,0,0-.15.23.23,0,0,0-.21-.13h0l-.12-.15h.22a.2.2,0,0,1,.18.19s0,.09,0,.18a3,3,0,0,1,0-.4c0-.06,0-.14,0-.23l.05.05a.37.37,0,0,0,0,.15s0,0,0,.06h.21Z"/><path class="cls-10" d="M303.14,21.84l.24-1.24h.19l.12.8q0,.17,0,.3a2.33,2.33,0,0,1,.16-.33l.4-.77h.19l-.24,1.24h-.15l.12-.6c0-.14.07-.3.12-.47a2,2,0,0,1-.12.26l-.43.81h-.15l-.11-.8a1.56,1.56,0,0,1,0-.25,1.3,1.3,0,0,1,0,.26l-.15.79Z"/><path class="cls-10" d="M304.56,21.32a.8.8,0,0,1,.18-.54.57.57,0,0,1,.43-.2.45.45,0,0,1,.35.15.59.59,0,0,1,.14.4.94.94,0,0,1-.07.34,1,1,0,0,1-.13.2.7.7,0,0,1-.17.13.54.54,0,0,1-.25.06.55.55,0,0,1-.25-.07.47.47,0,0,1-.17-.2A.66.66,0,0,1,304.56,21.32Zm.15,0a.45.45,0,0,0,0,.2.29.29,0,0,0,.13.14.34.34,0,0,0,.17,0,.33.33,0,0,0,.17,0,.61.61,0,0,0,.15-.13.75.75,0,0,0,.1-.2.91.91,0,0,0,0-.23.44.44,0,0,0-.09-.29.3.3,0,0,0-.24-.11.4.4,0,0,0-.32.16A.69.69,0,0,0,304.71,21.33Z"/><path class="cls-10" d="M305.74,21.84,306,20.6h.5l.13.05a.2.2,0,0,1,.08.1.28.28,0,0,1,0,.13.35.35,0,0,1-.05.18.33.33,0,0,1-.16.12.3.3,0,0,1,.14.1.3.3,0,0,1,.05.16.35.35,0,0,1-.06.19.5.5,0,0,1-.14.15.46.46,0,0,1-.21.05Zm.18-.14h.4a.33.33,0,0,0,.12-.05.27.27,0,0,0,.07-.08.23.23,0,0,0,0-.11.2.2,0,0,0-.05-.14.33.33,0,0,0-.2,0H306Zm.11-.57h.23a.38.38,0,0,0,.24-.06.2.2,0,0,0,.08-.17.16.16,0,0,0,0-.09.1.1,0,0,0-.06,0,.37.37,0,0,0-.14,0h-.25Z"/><path class="cls-10" d="M306.83,21.84l.24-1.24h.16L307,21.84Z"/><path class="cls-10" d="M307.25,21.84l.24-1.24h.16l-.22,1.1h.6l0,.14Z"/><path class="cls-10" d="M308.16,21.84l.24-1.24h.83l0,.14h-.67l-.08.39h.66l0,.14h-.66l-.08.43h.73l0,.14Z"/><path class="cls-10" d="M309.68,21.84l.24-1.24h.75l0,.14h-.59l-.08.4h.61l0,.14h-.61l-.1.56Z"/><path class="cls-10" d="M310.68,21.84l.25-1.24h.15l-.24,1.24Z"/><path class="cls-10" d="M311.12,21.84l.24-1.24h.15l.19.46.15.36a1.84,1.84,0,0,1,.06.23l.06-.32.14-.73h.15L312,21.84h-.15l-.29-.72a3.43,3.43,0,0,1-.12-.33c0,.08,0,.18,0,.3l-.15.75Z"/><path class="cls-10" d="M312.17,21.84l.66-1.24H313l.19,1.24h-.15l-.06-.36h-.46l-.19.36Zm.42-.49H313l0-.31a1.89,1.89,0,0,1,0-.3l-.12.25Z"/><path class="cls-10" d="M313.36,21.84l.24-1.24h.15l.19.46c.06.15.11.27.14.36a1.63,1.63,0,0,1,.07.23l.06-.32.14-.73h.15l-.24,1.24h-.15l-.29-.72a3.43,3.43,0,0,1-.12-.33c0,.08,0,.18,0,.3l-.15.75Z"/><path class="cls-10" d="M315.42,21.4l.15,0a.67.67,0,0,1-.21.33.51.51,0,0,1-.31.11.46.46,0,0,1-.34-.14.57.57,0,0,1-.12-.39.81.81,0,0,1,.19-.56.52.52,0,0,1,.41-.19.44.44,0,0,1,.3.11.39.39,0,0,1,.13.28h-.14a.38.38,0,0,0-.1-.2.26.26,0,0,0-.18-.06.37.37,0,0,0-.34.2.69.69,0,0,0-.12.41.42.42,0,0,0,.09.29.29.29,0,0,0,.23.1.32.32,0,0,0,.21-.08A.49.49,0,0,0,315.42,21.4Z"/><path class="cls-10" d="M315.7,21.84l.24-1.24h.15l-.24,1.24Z"/><path class="cls-10" d="M316,21.84l.66-1.24h.18l.19,1.24h-.15l-.06-.36h-.46l-.19.36Zm.42-.49h.39l-.05-.31a1.89,1.89,0,0,1,0-.3l-.12.25Z"/><path class="cls-10" d="M317.2,21.84l.24-1.24h.15l-.21,1.1h.6l0,.14Z"/><path class="cls-10" d="M318.56,21.44l.15,0v0a.31.31,0,0,0,0,.13.18.18,0,0,0,.1.09.43.43,0,0,0,.17,0,.33.33,0,0,0,.21-.06.21.21,0,0,0,.07-.15.15.15,0,0,0,0-.11.69.69,0,0,0-.21-.13l-.19-.09a.4.4,0,0,1-.11-.12.28.28,0,0,1,0-.15.34.34,0,0,1,.05-.17.33.33,0,0,1,.14-.12.54.54,0,0,1,.22,0,.52.52,0,0,1,.23.05.24.24,0,0,1,.14.14.33.33,0,0,1,0,.16v0h-.15a.19.19,0,0,0,0-.08.22.22,0,0,0-.05-.08.15.15,0,0,0-.09-.06.27.27,0,0,0-.13,0,.32.32,0,0,0-.2.06.17.17,0,0,0,0,.12.19.19,0,0,0,0,.08.19.19,0,0,0,.08.07l.2.1.17.09a.52.52,0,0,1,.1.11.33.33,0,0,1,0,.15.32.32,0,0,1-.06.18.34.34,0,0,1-.16.13.52.52,0,0,1-.23.05.55.55,0,0,1-.32-.09A.39.39,0,0,1,318.56,21.44Z"/><path class="cls-10" d="M319.59,21.84l.25-1.24h.83l0,.14H320l-.07.39h.66l0,.14h-.66l-.08.43h.72l0,.14Z"/><path class="cls-10" d="M320.67,21.84l.24-1.24h.49a.55.55,0,0,1,.21,0,.22.22,0,0,1,.12.09.34.34,0,0,1,0,.18.35.35,0,0,1-.09.25.47.47,0,0,1-.3.13.31.31,0,0,1,.1.1.76.76,0,0,1,.11.22l.09.24h-.17l-.08-.23a1.56,1.56,0,0,0-.1-.22.29.29,0,0,0-.08-.08.28.28,0,0,0-.14,0h-.18l-.1.55Zm.29-.69h.4l.15,0a.18.18,0,0,0,.08-.09.19.19,0,0,0,0-.12.12.12,0,0,0,0-.09.09.09,0,0,0-.06-.06H321Z"/><path class="cls-10" d="M322.15,21.84l-.22-1.24h.15l.13.74a2.86,2.86,0,0,1,.05.32l.12-.25.41-.81H323l-.63,1.24Z"/><path class="cls-10" d="M322.9,21.84l.24-1.24h.15l-.24,1.24Z"/><path class="cls-10" d="M324.23,21.4l.15,0a.67.67,0,0,1-.21.33.51.51,0,0,1-.31.11.46.46,0,0,1-.34-.14.57.57,0,0,1-.12-.39.81.81,0,0,1,.19-.56.52.52,0,0,1,.41-.19.44.44,0,0,1,.3.11.39.39,0,0,1,.13.28h-.14a.38.38,0,0,0-.1-.2.26.26,0,0,0-.18-.06.37.37,0,0,0-.34.2.69.69,0,0,0-.12.41.42.42,0,0,0,.09.29.29.29,0,0,0,.23.1.32.32,0,0,0,.21-.08A.49.49,0,0,0,324.23,21.4Z"/><path class="cls-10" d="M324.49,21.84l.24-1.24h.83l0,.14h-.68l-.08.39h.66l0,.14h-.66l-.09.43h.73l0,.14Z"/><path class="cls-10" d="M325.61,21.44l.15,0v0a.31.31,0,0,0,0,.13.18.18,0,0,0,.1.09.43.43,0,0,0,.17,0,.33.33,0,0,0,.21-.06.21.21,0,0,0,.07-.15.15.15,0,0,0,0-.11.86.86,0,0,0-.21-.13l-.19-.09a.4.4,0,0,1-.11-.12.28.28,0,0,1,0-.15.34.34,0,0,1,.05-.17.33.33,0,0,1,.14-.12.46.46,0,0,1,.21,0,.54.54,0,0,1,.24.05.27.27,0,0,1,.14.14.33.33,0,0,1,.05.16v0h-.14s0-.06,0-.08a.22.22,0,0,0-.05-.08.15.15,0,0,0-.09-.06.27.27,0,0,0-.13,0,.3.3,0,0,0-.2.06.17.17,0,0,0-.05.12.19.19,0,0,0,0,.08.19.19,0,0,0,.08.07l.19.1.18.09a.31.31,0,0,1,.09.11.24.24,0,0,1,0,.15.32.32,0,0,1-.06.18.34.34,0,0,1-.16.13.56.56,0,0,1-.23.05.53.53,0,0,1-.32-.09A.39.39,0,0,1,325.61,21.44Z"/><path class="cls-10" d="M313.33,15.42a.94.94,0,0,0-1-1.08c-1.23,0-1.78,1.33-1.78,2.45,0,.8.36,1.5,1.23,1.5a1.37,1.37,0,0,0,1.28-1.16h1.2c-.49,1.63-1.31,2.24-2.5,2.24a2.28,2.28,0,0,1-2.41-2.58c0-1.89,1.13-3.53,3-3.53a2,2,0,0,1,2.18,2.16Z"/><path class="cls-10" d="M315.2,16.29a1.64,1.64,0,0,1,1.87-1.4c.7,0,1.65.16,1.64,1.11a4.29,4.29,0,0,1-.09.71l-.35,1.7a2.72,2.72,0,0,0,0,.58.67.67,0,0,0,0,.24h-1.08v-.42a1.58,1.58,0,0,1-1.21.53,1.13,1.13,0,0,1-1.28-1.11c0-.81.57-1.31,1.51-1.43s1.5-.08,1.5-.62-.41-.51-.68-.51a.73.73,0,0,0-.8.62Zm2.29.91a1.94,1.94,0,0,1-.92.21c-.41.05-.8.15-.8.68,0,.32.29.48.6.48.67,0,.89-.5,1-1Z"/><path class="cls-10" d="M321.8,16.24a.53.53,0,0,0-.61-.57c-.38,0-.66.11-.66.41s.13.31.49.43l.55.19c.57.2,1,.5,1,1.21,0,1-1,1.43-1.87,1.43S319.05,19,319.05,18v-.17h1V18c0,.38.4.57.77.57s.69-.12.69-.51-.15-.38-.39-.46l-.83-.29c-.54-.19-.85-.42-.85-1.08,0-1,1-1.34,1.74-1.34s1.63.26,1.62,1.35Z"/><path class="cls-10" d="M324.12,13.4h1.08l-.4,2.1h0a1.56,1.56,0,0,1,1.31-.61A1,1,0,0,1,327.27,16a5.15,5.15,0,0,1-.12.72l-.49,2.48h-1.08l.48-2.48a3.12,3.12,0,0,0,.07-.51.5.5,0,0,0-.52-.43c-.65,0-1,.58-1.1,1.17l-.45,2.25H323Z"/><path class="cls-9" d="M309.46,13.24l-.64,3.62a3.24,3.24,0,0,1-.91,1.88,2.94,2.94,0,0,1-2,.61,4,4,0,0,1-1.22-.15,1.9,1.9,0,0,1-.78-.46,1.8,1.8,0,0,1-.48-.69,2.5,2.5,0,0,1-.17-.83,5.35,5.35,0,0,1,.07-1.07l.51-2.91h1.84l-.59,3.38a2.07,2.07,0,0,0,0,.5c0,.48.3.72.85.72a1.08,1.08,0,0,0,.75-.27,1.92,1.92,0,0,0,.43-1.05l.56-3.28Z"/><polygon class="cls-9" points="303.11 20.17 303.2 19.78 308.75 19.78 308.67 20.17 303.11 20.17 303.11 20.17"/><polygon class="cls-9" points="309.2 20.17 309.29 19.78 326.58 19.78 326.49 20.17 309.2 20.17 309.2 20.17"/><path class="cls-11" d="M302.8,20.14h-4s-2.58-2.1-2.31-4c0,0,.16-.83,1.25-.2l1.09.75a.4.4,0,0,1,.06.5.51.51,0,0,1-.58.21l-.93-.52s-.57-.16-.16.27c0,0,1.34.88,1.92.29a.72.72,0,0,0,.1-.54s1.12-.07.85-1a.53.53,0,0,0-.26-.29l-1-.67h3.3a1,1,0,0,0,.84-1.24,1.2,1.2,0,0,1-.36-1.56s.3-.57.59-.56c0,0,.2,0,.18.33l0,1a1,1,0,0,1,.22.77,14.38,14.38,0,0,0-.54,3.84,2.37,2.37,0,0,0,.27.76Z"/><path class="cls-11" d="M297,15.51a.59.59,0,0,1,.07-1.16.77.77,0,0,1,.72.41l.71.22,1,.71s.64.43.21.88c0,0-.55.2-.81-.14l-.89-.61A1.41,1.41,0,0,0,297,15.51Z"/><path class="cls-11" d="M297.63,14.08s-1,.12-1.11-.23a.86.86,0,0,1,.25-1,.83.83,0,0,1,.86-.19s.59.37.23.75a1.53,1.53,0,0,1-.63.34l0,.12.43,0Z"/><path class="cls-11" d="M297.59,12.38s-1.11-.07-.56-1a.57.57,0,0,1,.54-.2Z"/><path class="cls-12" d="M300.48,6.15a.32.32,0,0,0,.27,0s.28-.18.28-.23Z"/><path class="cls-12" d="M300.48,6.15s.26.11.55-.26Z"/><path class="cls-13" d="M300.6,5.26"/><path class="cls-14" d="M301.17,6a.92.92,0,1,1-.92-.91A.92.92,0,0,1,301.17,6Z"/><path class="cls-15" d="M301.46,6a1.21,1.21,0,1,1-1.21-1.21A1.21,1.21,0,0,1,301.46,6Z"/><path class="cls-16" d="M300.21,6.14a.11.11,0,0,0,.1,0s0-.06.09,0a.34.34,0,0,0,.29,0s.31-.18.34-.33a1.74,1.74,0,0,0-.36.06l.14-.3s0-.05-.07,0l-.19.1a1.1,1.1,0,0,0,0-.26,1,1,0,0,0-.2.19,2.67,2.67,0,0,0-.09-.26.42.42,0,0,0-.1.25,1.3,1.3,0,0,0-.21-.18v.27s-.22-.16-.26-.12a2.25,2.25,0,0,0,.16.3s-.37-.07-.38-.06.26.49.69.37A.06.06,0,0,1,300.21,6.14Z"/><path class="cls-17" d="M300.11,5.85V5.74a.89.89,0,0,0-.3-.19Z"/><path class="cls-12" d="M300.38,6.07a.33.33,0,0,0,.27,0s.28-.18.28-.23Z"/><path class="cls-12" d="M300.38,6.07s.26.11.55-.26Z"/><polygon class="cls-18" points="300.08 5.86 299.78 5.56 299.93 5.81 300.08 5.86"/><path class="cls-18" d="M300.24,6.09V5.41a1.58,1.58,0,0,0-.08.63S300.26,6.07,300.24,6.09Z"/><path class="cls-18" d="M300.28,6.1V5.42a1.58,1.58,0,0,1,.08.63S300.26,6.08,300.28,6.1Z"/><path class="cls-18" d="M300.4,6V5.94a1.74,1.74,0,0,1,.5-.16A2.54,2.54,0,0,1,300.4,6Z"/><polygon class="cls-18" points="300.02 5.63 300 5.45 300.11 5.69 300.02 5.63"/><path class="cls-18" d="M300,5.41s.14.15.14.15l0,.09Z"/><polygon class="cls-18" points="300.73 5.57 300.59 5.83 300.42 5.89 300.73 5.57"/><path class="cls-18" d="M300.12,6.05l-.55-.26S299.93,6.18,300.12,6.05Z"/><path class="cls-18" d="M300.12,6V5.94a1.65,1.65,0,0,0-.51-.18Z"/><path class="cls-18" d="M300.38,6.07l.55-.26S300.62,6.17,300.38,6.07Z"/><polygon class="cls-18" points="300.4 5.87 300.4 5.76 300.68 5.54 300.4 5.87"/><polygon class="cls-18" points="300.41 5.68 300.52 5.43 300.51 5.61 300.41 5.68"/><path class="cls-18" d="M300.49,5.43l-.1.25a.12.12,0,0,1,0-.15Z"/><path class="cls-12" d="M300.5,5.18"/><path class="cls-16" d="M299.53,6.14a.26.26,0,0,1,.19,0s.18-.07.25,0a.36.36,0,0,1,.26,0s.17,0,.18,0,.11.06.18,0a.6.6,0,0,1,.21,0,.13.13,0,0,0,.12,0H301s0,.05,0,.06l-.15,0a.15.15,0,0,1-.12,0s-.21.07-.28,0-.2.06-.25,0-.13,0-.16,0a.14.14,0,0,1-.11,0s-.1,0-.12,0a.18.18,0,0,1-.16,0h-.07Z"/><path class="cls-16" d="M299.57,6.27a.28.28,0,0,1,.17,0s.18-.06.24,0a.39.39,0,0,1,.25,0l.17,0a.24.24,0,0,0,.17,0,.69.69,0,0,1,.19,0,.12.12,0,0,0,.11,0h.06s0,0,0,.05l-.14,0a.14.14,0,0,1-.11,0s-.2.06-.27,0-.18,0-.24,0a.42.42,0,0,0-.14,0s-.07,0-.1,0-.1,0-.11,0a.22.22,0,0,1-.16,0h-.06Z"/><path class="cls-16" d="M299.69,6.45s.05,0,.14,0,.15.06.2,0a.25.25,0,0,0,.2,0l.14,0a.17.17,0,0,1,.14,0,.49.49,0,0,0,.16,0,.09.09,0,0,1,.09,0h.05s0,0,0,0l-.12,0a.08.08,0,0,0-.08,0s-.17-.06-.22,0-.16-.05-.2,0a.32.32,0,0,1-.12,0s-.06,0-.08,0-.08,0-.09,0a.12.12,0,0,0-.13,0h-.05Z"/><path class="cls-16" d="M300,6.57a.37.37,0,0,1,.19,0,.17.17,0,0,0,.15,0s.21,0,.23,0,.13,0,.11-.07h-.07s-.18,0-.24,0-.15,0-.17,0-.14-.07-.21,0-.18-.06-.19,0S299.83,6.57,300,6.57Z"/><path class="cls-16" d="M300.08,6.62s-.05,0,.11,0a.43.43,0,0,0,.27,0s0-.06-.13,0-.1,0-.14,0S300.08,6.6,300.08,6.62Z"/><path class="cls-10" d="M297.81,12.54v-5A1.4,1.4,0,0,1,299,6.24h2.75a1.22,1.22,0,0,1,1,1.29v4a1.86,1.86,0,0,0-.07,2.25s.29.81-.45.84h-4s-.48,0-.28-.79A.86.86,0,0,0,297.81,12.54Z"/><rect class="cls-19" x="298.45" y="7.7" width="3.57" height="3.3"/><path class="cls-19" d="M299.19,7.27a.17.17,0,0,1-.17.16.16.16,0,0,1,0-.32A.17.17,0,0,1,299.19,7.27Z"/><path class="cls-19" d="M298.67,6.64a.11.11,0,0,1-.22,0,.11.11,0,0,1,.22,0Z"/><path class="cls-19" d="M299.24,11.73a.18.18,0,0,1-.18.18h-.35a.18.18,0,0,1-.18-.18h0a.18.18,0,0,1,.18-.18h.35a.18.18,0,0,1,.18.18Z"/><path class="cls-19" d="M300.16,11.73a.18.18,0,0,1-.18.18h-.35a.18.18,0,0,1-.18-.18h0a.18.18,0,0,1,.18-.18H300a.18.18,0,0,1,.18.18Z"/><path class="cls-19" d="M301.08,11.73a.18.18,0,0,1-.18.18h-.35a.18.18,0,0,1-.18-.18h0a.18.18,0,0,1,.18-.18h.35a.18.18,0,0,1,.18.18Z"/><path class="cls-19" d="M302,11.73a.18.18,0,0,1-.18.18h-.35a.18.18,0,0,1-.18-.18h0a.18.18,0,0,1,.18-.18h.35a.18.18,0,0,1,.18.18Z"/><path class="cls-19" d="M299.24,12.45a.18.18,0,0,1-.18.18h-.35a.18.18,0,0,1-.18-.18h0a.18.18,0,0,1,.18-.18h.35a.18.18,0,0,1,.18.18Z"/><path class="cls-19" d="M300.16,12.45a.18.18,0,0,1-.18.18h-.35a.18.18,0,0,1-.18-.18h0a.18.18,0,0,1,.18-.18H300a.18.18,0,0,1,.18.18Z"/><path class="cls-19" d="M301.08,12.45a.18.18,0,0,1-.18.18h-.35a.18.18,0,0,1-.18-.18h0a.18.18,0,0,1,.18-.18h.35a.18.18,0,0,1,.18.18Z"/><path class="cls-19" d="M302,12.45a.18.18,0,0,1-.18.18h-.35a.18.18,0,0,1-.18-.18h0a.18.18,0,0,1,.18-.18h.35a.18.18,0,0,1,.18.18Z"/><path class="cls-19" d="M299.24,13.17a.18.18,0,0,1-.18.17h-.35a.18.18,0,0,1-.18-.17h0a.18.18,0,0,1,.18-.18h.35a.18.18,0,0,1,.18.18Z"/><path class="cls-19" d="M300.16,13.17a.18.18,0,0,1-.18.17h-.35a.18.18,0,0,1-.18-.17h0a.18.18,0,0,1,.18-.18H300a.18.18,0,0,1,.18.18Z"/><path class="cls-19" d="M301.08,13.17a.18.18,0,0,1-.18.17h-.35a.18.18,0,0,1-.18-.17h0a.18.18,0,0,1,.18-.18h.35a.18.18,0,0,1,.18.18Z"/><path class="cls-19" d="M302,13.17a.18.18,0,0,1-.18.17h-.35a.18.18,0,0,1-.18-.17h0a.18.18,0,0,1,.18-.18h.35a.18.18,0,0,1,.18.18Z"/><path class="cls-19" d="M299.24,13.88a.18.18,0,0,1-.18.18h-.35a.18.18,0,0,1-.18-.18h0a.18.18,0,0,1,.18-.18h.35a.18.18,0,0,1,.18.18Z"/><path class="cls-19" d="M300.16,13.88a.18.18,0,0,1-.18.18h-.35a.18.18,0,0,1-.18-.18h0a.18.18,0,0,1,.18-.18H300a.18.18,0,0,1,.18.18Z"/><path class="cls-19" d="M301.08,13.88a.18.18,0,0,1-.18.18h-.35a.18.18,0,0,1-.18-.18h0a.18.18,0,0,1,.18-.18h.35a.18.18,0,0,1,.18.18Z"/><path class="cls-19" d="M302,13.88a.18.18,0,0,1-.18.18h-.35a.18.18,0,0,1-.18-.18h0a.18.18,0,0,1,.18-.18h.35a.18.18,0,0,1,.18.18Z"/><path class="cls-19" d="M301,7a.26.26,0,0,1-.26.26h-.9a.26.26,0,0,1-.26-.26h0a.26.26,0,0,1,.26-.26h.9A.26.26,0,0,1,301,7Z"/><polygon class="cls-20" points="211.27 5.48 205.75 11.01 206.14 14.11 207.15 11.97 210.3 15.99 214.71 2.43 200.03 8.54 204 10.62 211.27 5.48"/><path class="cls-21" d="M206.47,15.17h-5.81a4,4,0,0,0,0,8h5.86V17.35a1.84,1.84,0,0,1,.93,3.39c.29.34,1.45,1.6,1.45,1.6A4,4,0,0,0,206.47,15.17ZM204.34,21H201.1a1.82,1.82,0,0,1-.19-3.63h3.43Z"/><path class="cls-20" d="M218.63,18.08H216.5l-.92,2.13h2.72c.54,0,.56.77,0,.82h-4.7V17.35h7.21V15.17h-1.06c-.32-4.5-5.71-4.64-7.12-2.18.28.23,1.6,1.41,1.6,1.41a1.84,1.84,0,0,1,3.39.77h-6.16v8h6.93A2.47,2.47,0,0,0,220.86,21,2.62,2.62,0,0,0,218.63,18.08Z"/><path class="cls-20" d="M197.9,15.17h-2.81a7.3,7.3,0,0,0,.63,8.82l1.6-1.36A5.36,5.36,0,0,1,197.9,15.17Z"/><path class="cls-20" d="M190.75,24.06A1.76,1.76,0,1,1,189,22.3,1.76,1.76,0,0,1,190.75,24.06Z"/><path class="cls-20" d="M187,15.17a4,4,0,0,0-.05,8h0a2.22,2.22,0,0,1,2-1.29,2.19,2.19,0,0,1,2,1.29h1.82v-8ZM190.68,21h-3.24a1.82,1.82,0,0,1-.2-3.63h3.44Z"/><path class="cls-20" d="M189.08,13.28a1,1,0,0,0-.09-1.91H187.1v2.78h.77v-.87l.87.87H190Zm-.09-1a.18.18,0,0,1-.18.18h-.93v-.39h.93a.19.19,0,0,1,.18.19Z"/><path class="cls-20" d="M191.31,11.32a1.42,1.42,0,1,0,1.41,1.42A1.43,1.43,0,0,0,191.31,11.32Zm0,2a.63.63,0,0,1-.63-.62.63.63,0,1,1,.63.62Z"/><path class="cls-20" d="M199.31,12.13h1.27v-.82h-1.07A1.49,1.49,0,0,0,198,12.72a1.49,1.49,0,0,0,1.54,1.42h1.07v-.82h-1.27a.62.62,0,0,1-.46-.22h1.73v-.75h-1.73A.62.62,0,0,1,199.31,12.13Z"/><path class="cls-20" d="M194.27,13.32a.58.58,0,0,1-.58-.58v0a.58.58,0,0,1,.58-.58h1.21v-.82h-1.09a1.48,1.48,0,0,0-1.53,1.41,1.48,1.48,0,0,0,1.53,1.42h1.09v-.82Z"/><polygon class="cls-20" points="203.53 11.36 200.79 11.36 200.79 12.09 201.79 12.09 201.79 14.1 202.53 14.1 202.53 12.09 203.53 12.09 203.53 11.36"/><polygon class="cls-21" points="197.02 12.72 198.37 11.36 197.28 11.36 196.52 12.13 196.52 11.36 195.79 11.36 195.79 14.1 196.52 14.1 196.52 13.31 197.3 14.1 198.39 14.1 197.02 12.72"/><path class="cls-21" d="M208,24.52a.5.5,0,0,0-.32.23.6.6,0,0,0-.13.37.44.44,0,0,0,0,.22.18.18,0,0,0,.15.13.27.27,0,0,0,.14-.06l.07.21a.36.36,0,0,1-.2.06.38.38,0,0,1-.25-.1.59.59,0,0,1-.14-.22.67.67,0,0,1,0-.23v-.08a.92.92,0,0,1,.27-.56l.18-.18h.28v.2Z"/><path class="cls-21" d="M209.25,24.51v1.15H209v-.15a.29.29,0,0,0-.11-.19l-.19-.16a.39.39,0,0,0-.23-.07.19.19,0,0,0-.19.11.1.1,0,0,0,0,0,.1.1,0,0,0,.05.08.12.12,0,0,0,.09,0l.18-.06.06.21a.51.51,0,0,1-.25.08.37.37,0,0,1-.21-.06.33.33,0,0,1-.14-.17.2.2,0,0,1,0-.11.33.33,0,0,1,.16-.3.41.41,0,0,1,.24-.08h0a.22.22,0,0,0-.06-.13.17.17,0,0,0-.12-.08H208v-.14h-.1v-.2h1.48v.2Zm-.23,0h-.54a.47.47,0,0,1,.24.39.86.86,0,0,1,.3.23Z"/><path class="cls-21" d="M209.7,24.51v1.15h-.23V24.51h-.17v-.2h.56v.2Z"/><path class="cls-21" d="M210.81,24.51h-1v-.2h1.44v.2h-.16v1.15h-.2q0-.09-.3-.27a1.8,1.8,0,0,0-.31-.15,1,1,0,0,0-.32-.08l-.06-.22a2.16,2.16,0,0,1,.44-.23Zm0,.25-.13,0-.4.17,0,0a2.07,2.07,0,0,1,.52.29l0,0Z"/><path class="cls-21" d="M211.5,24.51v1.15h-.23V24.51h-.17v-.2h.55v.2Z"/><path class="cls-21" d="M211.57,24.51v-.2h.68v0a.19.19,0,0,0-.15-.2h0l-.09,0-.09,0a.29.29,0,0,0-.1,0l-.13.07-.07-.17a1.08,1.08,0,0,1,.34-.15l.17,0a.41.41,0,0,1,.2.06.45.45,0,0,1,.19.38h.13v.2Zm.8,1.35a1.76,1.76,0,0,0-.3-.24l-.25-.12-.16-.05v-.27h.18a.6.6,0,0,0,.25,0c.13,0,.19-.11.19-.18a.17.17,0,0,0-.07-.13l-.14-.08h0l-.09,0s-.06,0-.06.07.07.08.19.07l-.12.19a.2.2,0,0,1-.16-.05.28.28,0,0,1-.14-.23.24.24,0,0,1,.14-.21.5.5,0,0,1,.27-.07l.12,0,.09.05a.38.38,0,0,1,.24.36.32.32,0,0,1-.15.28.59.59,0,0,1-.31.12l.17.1.32.26Z"/><path class="cls-21" d="M214,24.51v1.15h-.23v-.45a.27.27,0,0,0,0-.13.17.17,0,0,0-.11-.06s-.07,0-.11.07a.25.25,0,0,0-.05.15h-.24a.34.34,0,0,0,0-.17A.16.16,0,0,0,213,25a.19.19,0,0,0-.1,0,.14.14,0,0,0-.05.09v.09c0,.11.07.17.22.17h.11l-.08.23H213a.44.44,0,0,1-.3-.12.28.28,0,0,1-.09-.14.5.5,0,0,1,0-.16.39.39,0,0,1,.41-.42.35.35,0,0,1,.3.16.33.33,0,0,1,.27-.16.23.23,0,0,1,.16.07v-.34h-1.25v-.2h1.61v.2Z"/><path class="cls-21" d="M215.71,24.51h-1v-.2h1.43v.2H216v1.15h-.2q0-.09-.3-.27a1.38,1.38,0,0,0-.3-.15,1.1,1.1,0,0,0-.33-.08l-.06-.22a2.16,2.16,0,0,1,.44-.23Zm0,.25-.14,0-.4.17,0,0a1.91,1.91,0,0,1,.52.29l.06,0Z"/><path class="cls-21" d="M216.5,24.51a.43.43,0,0,0-.11.25,1.86,1.86,0,0,0,.11.37.73.73,0,0,1,.06.26.28.28,0,0,1-.23.28,1.16,1.16,0,0,1-.24,0l0-.2c.14,0,.2-.08.2-.15a.94.94,0,0,0-.08-.28.81.81,0,0,1-.09-.29.71.71,0,0,1,.1-.29H216v-.2h.64v.2Z"/><path class="cls-21" d="M217,24.51v1.15h-.23V24.51h-.17v-.2h.55v.2Z"/><path class="cls-21" d="M217.52,25.06a.38.38,0,0,1-.26-.1.41.41,0,0,1-.1-.27.35.35,0,0,1,.1-.24.33.33,0,0,1,.25-.1.31.31,0,0,1,.3.2.53.53,0,0,1,0,.17.35.35,0,0,1-.09.25A.32.32,0,0,1,217.52,25.06Zm.25.74a3.58,3.58,0,0,0-.59-.44V25a3.74,3.74,0,0,1,.79.69V26Zm-.2-1.21a.1.1,0,0,0-.07,0c-.09,0-.13.06-.13.13a.13.13,0,0,0,0,.1.14.14,0,0,0,.1.05h0a.12.12,0,0,0,.1-.12A.15.15,0,0,0,217.57,24.59Z"/><path class="cls-21" d="M219.41,24.18a1.31,1.31,0,0,0-.65-.26.54.54,0,0,0-.45.19.37.37,0,0,0-.05.2h.16v.2h-.16v1.15H218V24.51h-.15v-.2H218a.59.59,0,0,1,.17-.4.68.68,0,0,1,.41-.18l.11,0h0a1,1,0,0,1,.41.09l.37.21Z"/><path class="cls-21" d="M219.22,24.51h0a.69.69,0,0,1,.3.09.36.36,0,0,1,.22.33.27.27,0,0,1-.07.2.35.35,0,0,1-.19.12.47.47,0,0,1-.2,0v-.22h.07c.11,0,.17,0,.17-.13s-.1-.16-.3-.18v.91H219a.39.39,0,0,0-.1-.14l-.09-.12-.08-.08-.08-.08,0,0a.93.93,0,0,0-.24-.05l-.06-.23a3.39,3.39,0,0,1,.34-.2l.16-.1.17-.1v0h-.72v-.2h1.58v.2Zm-.23.27a.71.71,0,0,1-.17.11l-.07.05a.23.23,0,0,1-.07.07l.12.09.19.22Z"/><path class="cls-21" d="M220.19,25.06a.38.38,0,0,1-.26-.1.41.41,0,0,1-.1-.27.35.35,0,0,1,.1-.24.33.33,0,0,1,.25-.1.31.31,0,0,1,.3.2.51.51,0,0,1,0,.17.34.34,0,0,1-.08.25A.32.32,0,0,1,220.19,25.06Zm.25.74a3.58,3.58,0,0,0-.59-.44V25a3.74,3.74,0,0,1,.79.69V26Zm-.2-1.21a.11.11,0,0,0-.07,0c-.09,0-.13.06-.13.13a.13.13,0,0,0,0,.1.14.14,0,0,0,.1.05h0a.12.12,0,0,0,.1-.12A.15.15,0,0,0,220.24,24.59Z"/><polygon class="cls-21" points="194.75 25.76 195.18 25.91 195.35 25.76 194.93 25.61 194.75 25.76"/><path class="cls-21" d="M194.9,24.57v-.26h-3.37v.26h.57v.58h.48s.14,0,.17-.11v.23a.18.18,0,0,1-.17.19h-.71c-.05,0-.09,0-.09-.19v-.54h-.25v.69c0,.06,0,.26.22.26h1a.31.31,0,0,0,.26-.29v-.66h-.23c0,.1,0,.17-.11.19h-.29v-.35h.83v1.11h.29V24.57h.2v1.11h.94a.3.3,0,0,0,.29-.3v-.65h-.23c0,.06,0,.15-.12.15h-.63v-.31Zm-.38.54s.1-.05.15-.11v.27a.19.19,0,0,1-.15.19h-.6v-.35Z"/><rect class="cls-21" x="195.21" y="24.88" width="0.57" height="0.31"/><path class="cls-21" d="M196.1,24.31v.26H197v.16h-.94v.61c0,.2.12.34.32.34h.85V24.57h.2v1.11h.26V24.31ZM197,25.5h-.57a.22.22,0,0,1-.14-.23V25H197Z"/><path class="cls-21" d="M199,24.57h1.17v.16h-.35a.12.12,0,0,1-.23,0H199v.65c0,.06,0,.27.18.3h.47v-.22h-.31a.16.16,0,0,1-.12-.16V25h.32v.19h.28V25c0-.07.3-.06.32,0v.68h.25V24.57h.18v1.11h.25V24.31H199Z"/><path class="cls-21" d="M198.55,24.39H198v.36a.29.29,0,0,0,.29.26h.49v-.44A.22.22,0,0,0,198.55,24.39Zm-.18.38c-.11,0-.2,0-.2-.09s.09-.09.2-.09.2,0,.2.09S198.48,24.77,198.37,24.77Z"/><polygon class="cls-21" points="197.99 25.15 197.99 25.37 198.72 25.68 198.72 25.44 197.99 25.15"/><path class="cls-21" d="M204.71,24.39h-.61v.36a.3.3,0,0,0,.3.26h.48v-.44A.2.2,0,0,0,204.71,24.39Zm-.18.38c-.11,0-.2,0-.2-.09s.09-.09.2-.09.19,0,.19.09S204.64,24.77,204.53,24.77Z"/><polygon class="cls-21" points="204.14 25.15 204.14 25.37 204.88 25.68 204.88 25.44 204.14 25.15"/><path class="cls-21" d="M206.27,24.73v-.16h.47v-.26H205.1v.26H206v.16h-.94v.61c0,.2.12.34.32.34h.85V25h.23s.05,0,.06,0v.11c0,.06,0,.1-.06.12h-.09v.23h.17c.06,0,.17-.07.18-.16v-.61Zm-.23.77h-.57a.22.22,0,0,1-.14-.23V25H206v0h0Z"/><path class="cls-21" d="M201.55,24.31v.26h.94v.16h-.94v.61c0,.2.13.34.32.34h.85V24.57h.3l-.11.22v.15h.2c.11,0,.15.08.15.27s0,.22-.13.23h-.19v.23h.2c.06,0,.32,0,.34-.23,0-.52.06-.65-.31-.69l.05-.18h.41v1.11h.25V24.31Zm.94,1.19h-.57a.23.23,0,0,1-.14-.23V25h.71Z"/><path class="cls-22" d="M138.17,9.8h-8.69a.25.25,0,0,0-.19.09.27.27,0,0,0-.08.19v.68a.28.28,0,0,0,.08.2.25.25,0,0,0,.19.09H136v3.64a6.53,6.53,0,0,0-.62-.77,3.38,3.38,0,0,0-2.43-1.19,2.09,2.09,0,0,0-1.72,1,3.12,3.12,0,0,0-.6,1.69,3.48,3.48,0,0,0,.52,2,2.53,2.53,0,0,0,.93.82,2.43,2.43,0,0,0,1.21.26,1.71,1.71,0,0,0,1.82-1.59,1.43,1.43,0,0,0-.2-.73,1.29,1.29,0,0,0-.55-.51l-.47-.29v.56s0,.07,0,.11v.07a.88.88,0,0,1-.32.37.86.86,0,0,1-.46.14,1.13,1.13,0,0,1-.84-.34.86.86,0,0,1-.19-.58,1.26,1.26,0,0,1,.28-.72,1,1,0,0,1,.33-.28.9.9,0,0,1,.42-.1,2.47,2.47,0,0,1,2.18,1.29,4,4,0,0,1,.72,2.2l0,1.84,1.28.81a.22.22,0,0,0,.13,0,.22.22,0,0,0,.14,0,.27.27,0,0,0,.11-.1.33.33,0,0,0,0-.14V11.05h.51l.11,0,.09-.07a.15.15,0,0,0,.06-.09.36.36,0,0,0,0-.11v-.68a.36.36,0,0,0,0-.1.15.15,0,0,0-.06-.09l-.09-.07-.11,0"/><path class="cls-22" d="M155.54,9.8h-11l-.1,0a.22.22,0,0,0-.09.07.15.15,0,0,0-.06.09.19.19,0,0,0,0,.1v1.24a4.23,4.23,0,0,0-2.89-1.7,3.14,3.14,0,0,0-2.09.63,2,2,0,0,0-.64.72,2.19,2.19,0,0,0-.25.94c0,2,2.16,1.94,2.7,1.63a.73.73,0,0,1,.35-.12.53.53,0,0,1,.25.05.66.66,0,0,1,.2.14.55.55,0,0,1,.12.21.54.54,0,0,1,0,.25c0,.46-.64.84-1.4.84a.94.94,0,0,1-.86-.37l-.34-.52-.23.58a1.32,1.32,0,0,0-.12.52,1.64,1.64,0,0,0,.18.69,1.54,1.54,0,0,0,.46.55,2,2,0,0,0,1.39.51,2.32,2.32,0,0,0,1.08-.21A2.37,2.37,0,0,0,143,16a2.75,2.75,0,0,0,.55-1.71,2.08,2.08,0,0,0-.42-1.17,1.51,1.51,0,0,0-1.26-.76,2.2,2.2,0,0,0-.61.12l-.28.07a.47.47,0,0,1-.31-.16.63.63,0,0,1-.13-.2.59.59,0,0,1-.05-.23,1.09,1.09,0,0,1,1.22-1h0a2.25,2.25,0,0,1,1.52.74,4.73,4.73,0,0,1,.92,1.21v7l1.29.77a.23.23,0,0,0,.14,0,.27.27,0,0,0,.28-.28V11.05h2v6l1.57.64.1,0a.29.29,0,0,0,.18-.07.32.32,0,0,0,.1-.18v-.05a4.82,4.82,0,0,1,2.32-3.75V14c0,.24,0,.9,0,1.26a3.93,3.93,0,0,0,0,.47,10.85,10.85,0,0,0,.33,2.54c.42,1.5,1.15,1.84,1.7,1.85h0a1,1,0,0,0,.72-.23.71.71,0,0,0,.16-.26.65.65,0,0,0,.05-.31,1.34,1.34,0,0,0-.12-.65l-.11-.21-.23.06a1.34,1.34,0,0,1-.4.06h0a.2.2,0,0,1-.13,0c-.09,0-.25-.19-.37-.66a5.8,5.8,0,0,1-.13-1.1c0-1.95.4-3.42,1-3.76l0,0a.23.23,0,0,0,.12-.1.33.33,0,0,0,0-.15.22.22,0,0,0,0-.13v0A2.74,2.74,0,0,0,153,11.34l-.07,0h-.07a5.89,5.89,0,0,0-2.53,1.47c-.27.23-.51.44-.74.66V11.05h5.93a.25.25,0,0,0,.19-.09.25.25,0,0,0,.09-.2v-.68a.31.31,0,0,0-.28-.28"/><path class="cls-8" d="M130.08,23.28v.54l.46-.18.14.13a.81.81,0,0,1,0,.16.59.59,0,0,1-.15.44.41.41,0,0,1-.19.13.51.51,0,0,1-.24,0,.63.63,0,0,1-.27-.06.66.66,0,0,1-.23-.17,1.44,1.44,0,0,1-.29-.51l.13-.08c.16.45.38.67.69.67a.4.4,0,0,0,.15,0,.38.38,0,0,0,.13-.09.42.42,0,0,0,.09-.14.41.41,0,0,0,0-.16.39.39,0,0,0,0-.14l-.41.18-.16-.12v-.61h-.73v-.14h1.6v.14Z"/><path class="cls-8" d="M131.11,23.29v1.25H131V23.29h-.2v-.15h.54v.15Z"/><path class="cls-8" d="M132.17,23.28v.09a.66.66,0,0,1,.36.11.33.33,0,0,1,.13.13.28.28,0,0,1,.06.18.31.31,0,0,1,0,.13.28.28,0,0,1-.09.1.39.39,0,0,1-.26.09h0V24h.15l.06,0a.09.09,0,0,0,0-.06.15.15,0,0,0,0-.07c0-.14-.13-.23-.4-.25v1H132a1.22,1.22,0,0,0-.27-.36.63.63,0,0,0-.4-.19l0-.19c.1-.07.33-.21.71-.43v-.08h-.77v-.14h1.59v.14Zm-.16.27a.68.68,0,0,0-.23.14l-.21.18a.83.83,0,0,1,.23.19,2.55,2.55,0,0,0,.21.23Z"/><path class="cls-8" d="M135,22.9a1.33,1.33,0,0,0-.69-.26.63.63,0,0,0-.4.12.7.7,0,0,0-.13.17.51.51,0,0,0,0,.21h.17v.14h-.17v1.25h-.17V23.28h-.17v-.14h.17a.65.65,0,0,1,0-.27.6.6,0,0,1,.17-.22.78.78,0,0,1,.51-.16,1,1,0,0,1,.41.09,2.6,2.6,0,0,1,.36.21Z"/><path class="cls-8" d="M135.09,23.28v1.26H135a1.17,1.17,0,0,0-.44-.36A1.16,1.16,0,0,0,134,24l-.05-.2a2.82,2.82,0,0,1,.49-.25l.53-.2v-.07h-1.13v-.14h1.45v.14Zm-.15.25q-.39.15-.75.33a2.28,2.28,0,0,1,.75.44Z"/><path class="cls-8" d="M135.2,23.14h1.56v.14H135.2Zm.88,1.39a.66.66,0,0,1-.27-.06.72.72,0,0,1-.22-.17,1.28,1.28,0,0,1-.27-.5l.09-.1a1.6,1.6,0,0,0,.23.45.61.61,0,0,0,.19.17.48.48,0,0,0,.24.06.45.45,0,0,0,.16,0,.41.41,0,0,0,.13-.1.5.5,0,0,0,.1-.31.52.52,0,0,1-.32.11.35.35,0,0,1-.27-.1.44.44,0,0,1-.08-.11.21.21,0,0,1,0-.15.29.29,0,0,1,0-.13.41.41,0,0,1,.07-.11.26.26,0,0,1,.11-.07.17.17,0,0,1,.12,0,.23.23,0,0,1,.18.05.19.19,0,0,1,.06.07.3.3,0,0,1,0,.1.16.16,0,0,1,0,.09.19.19,0,0,1-.06.07l-.11-.09s0,0,0,0a.14.14,0,0,0,0-.06s0-.08-.1-.08l-.07,0a.07.07,0,0,0-.06,0,.16.16,0,0,0-.06.13.29.29,0,0,0,0,.09.13.13,0,0,0,.06.07.12.12,0,0,0,.07.05.15.15,0,0,0,.09,0,.58.58,0,0,0,.19,0,.44.44,0,0,0,.15-.12l.15.16a.61.61,0,0,1-.15.44.42.42,0,0,1-.18.14.46.46,0,0,1-.23.05"/><path class="cls-8" d="M137.08,23.29v1.25h-.16V23.29h-.2v-.15h.54v.15Z"/><path class="cls-8" d="M137.88,24.63a.5.5,0,0,1-.36-.09.74.74,0,0,1-.2-.44.7.7,0,0,1,.11-.47,2.33,2.33,0,0,1,.27-.35h-.49v-.14H138v.14a.87.87,0,0,0-.35.28.74.74,0,0,0-.17.42q0,.51.42.51a.18.18,0,0,0,.12,0v.16a.31.31,0,0,1-.13,0"/><path class="cls-8" d="M138.92,23.28v1.24h-.16V23.7a.3.3,0,0,0-.07-.15.4.4,0,0,0-.16-.18.48.48,0,0,0-.23-.07.3.3,0,0,0-.17.08l-.1.1a.35.35,0,0,1,.17,0,.34.34,0,0,1,.2.06.23.23,0,0,1,.07.07.22.22,0,0,1,0,.11.39.39,0,0,1-.11.27.47.47,0,0,1-.24.18L138,24a.53.53,0,0,0,.2-.13.22.22,0,0,0,.07-.09.36.36,0,0,0,0-.11s-.05-.07-.14-.09a.47.47,0,0,0-.17,0H138l-.08-.15a1.45,1.45,0,0,1,.17-.18.4.4,0,0,1,.23-.08.5.5,0,0,1,.27.08.55.55,0,0,1,.19.21v-.29h.34v.14Z"/><path class="cls-8" d="M140.3,23.28v1.26h-.14a1.15,1.15,0,0,0-.43-.36,1.24,1.24,0,0,0-.53-.18l0-.19a4.46,4.46,0,0,1,1-.46v-.07H139v-.14h1.41v.14Zm-.16.26a3.9,3.9,0,0,0-.72.33,2.3,2.3,0,0,1,.72.43Zm-.42,1.05a.73.73,0,0,0-.23-.16l.07-.13a.61.61,0,0,1,.26.19Z"/><path class="cls-8" d="M142.6,22.9a1.33,1.33,0,0,0-.69-.26.65.65,0,0,0-.4.12.7.7,0,0,0-.13.17.51.51,0,0,0,0,.21h.17v.14h-.17v1.25h-.16V23.28H141v-.14h.17a.65.65,0,0,1,.05-.27.69.69,0,0,1,.16-.22.8.8,0,0,1,.52-.16.9.9,0,0,1,.4.09,2.71,2.71,0,0,1,.37.21Z"/><path class="cls-8" d="M142.32,23.28v.54l.46-.18.14.13c0,.05,0,.1,0,.16a.64.64,0,0,1-.15.44.44.44,0,0,1-.2.13.45.45,0,0,1-.23,0,.67.67,0,0,1-.28-.06.72.72,0,0,1-.22-.17,1.44,1.44,0,0,1-.29-.51l.12-.08c.16.45.39.67.69.67a.41.41,0,0,0,.16,0,.34.34,0,0,0,.12-.09.42.42,0,0,0,.09-.14.41.41,0,0,0,0-.16.78.78,0,0,0,0-.14l-.41.18-.16-.12v-.61h-.73v-.14H143v.14Z"/><path class="cls-8" d="M144.56,22.9a1.33,1.33,0,0,0-.69-.26.65.65,0,0,0-.4.12.66.66,0,0,0-.12.17.52.52,0,0,0,0,.21h.17v.14h-.17v1.25h-.17V23.28H143v-.14h.17a.86.86,0,0,1,.05-.27.72.72,0,0,1,.17-.22.8.8,0,0,1,.52-.16.93.93,0,0,1,.4.09,2.77,2.77,0,0,1,.37.22Z"/><path class="cls-8" d="M144.44,23.28a.35.35,0,0,0,.14.2.33.33,0,0,0,.22.05h.08l.12.15a1,1,0,0,0-.14.44.8.8,0,0,0,.07.43l-.1.05a.64.64,0,0,1-.12-.38,1.09,1.09,0,0,1,0-.26,2.11,2.11,0,0,1,.07-.27.66.66,0,0,1-.33-.12.74.74,0,0,1-.13-.12.51.51,0,0,1-.07-.17.58.58,0,0,0-.18.17.62.62,0,0,0-.08.24c0,.09,0,.14.12.14a.22.22,0,0,0,.13,0,.26.26,0,0,0,.09-.09h.15a.52.52,0,0,1,.05.27c0,.32-.16.47-.49.47a.41.41,0,0,1-.19-.05s-.08-.05-.17-.1-.12-.22-.21-.4l.09-.09a2.13,2.13,0,0,0,.23.42h0l.11.05.12,0a.38.38,0,0,0,.23-.08.25.25,0,0,0,.08-.1.31.31,0,0,0,0-.13.24.24,0,0,0,0-.14.24.24,0,0,1-.11.09.23.23,0,0,1-.14,0,.22.22,0,0,1-.11,0,.18.18,0,0,1-.08-.07.34.34,0,0,1-.07-.22.71.71,0,0,1,.16-.39h-.62v-.15h1.72v.14Z"/><path class="cls-8" d="M145.37,23.28v1.1h.09a.71.71,0,0,0,.4-.11c.16-.09.25-.19.25-.32a.2.2,0,0,0-.21-.22.64.64,0,0,0-.21.09l-.06-.15a.52.52,0,0,1,.34-.1.31.31,0,0,1,.13,0,.39.39,0,0,1,.1.08.48.48,0,0,1,.07.26.42.42,0,0,1-.06.21.46.46,0,0,1-.14.17.93.93,0,0,1-.39.18,1.94,1.94,0,0,1-.48,0V23.28h-.13v-.14h1v0a.28.28,0,0,0,0-.13.27.27,0,0,0-.08-.1.38.38,0,0,0-.25-.09,1.2,1.2,0,0,0-.48.17l0-.12a1.09,1.09,0,0,1,.55-.18.54.54,0,0,1,.36.14.64.64,0,0,1,.11.16.58.58,0,0,1,0,.19h.18v.14Z"/><path class="cls-8" d="M146.72,23.29v1.25h-.17V23.29h-.2v-.15h.55v.15Z"/><path class="cls-8" d="M148.33,23.28v1.26h-.15v-.26c0-.3-.07-.44-.23-.44l-.08,0a.17.17,0,0,0-.06.06.39.39,0,0,0-.06.15h-.19a.34.34,0,0,0-.05-.17l-.07-.06-.08,0a.13.13,0,0,0-.09,0,.14.14,0,0,0-.07.06.26.26,0,0,0,0,.19c0,.15.09.23.27.23h.08l-.05.16h-.06a.29.29,0,0,1-.16,0l-.13-.1a.46.46,0,0,1-.11-.3.48.48,0,0,1,.11-.3.6.6,0,0,1,.13-.09.44.44,0,0,1,.16,0,.28.28,0,0,1,.18.06.37.37,0,0,1,.13.15c.09-.14.18-.21.28-.21s.16.07.21.2v-.57h-1.33v-.14h1.64v.14Z"/><path class="cls-8" d="M149.31,24a.59.59,0,0,0,.05.27.28.28,0,0,0,.08.11.21.21,0,0,0,.12.05.16.16,0,0,0,.12,0l0,.15a.29.29,0,0,1-.16,0c-.27,0-.4-.21-.4-.64a1.11,1.11,0,0,1,.46-.77h.23v.13a.54.54,0,0,0-.22.09.69.69,0,0,0-.18.16.72.72,0,0,0-.15.45"/><path class="cls-8" d="M151.22,23.28v1.26h-.16v-.26c0-.3-.07-.44-.23-.44a.13.13,0,0,0-.08,0,.1.1,0,0,0-.05.06.22.22,0,0,0-.06.15h-.19a.27.27,0,0,0-.06-.17l-.06-.06-.09,0a.15.15,0,0,0-.09,0s-.05,0-.07.06a.41.41,0,0,0-.05.19c0,.15.09.23.27.23h.06l-.05.16h-.06a.29.29,0,0,1-.16,0l-.13-.1a.46.46,0,0,1-.11-.3.48.48,0,0,1,.11-.3.6.6,0,0,1,.13-.09.44.44,0,0,1,.16,0,.3.3,0,0,1,.18.06.47.47,0,0,1,.13.15c.09-.14.18-.21.28-.21s.15.07.21.2v-.57h-1.33v-.14h1.64v.14Z"/><path class="cls-8" d="M152.6,23.28v1.26h-.16v-.09a.57.57,0,0,0-.07-.22.81.81,0,0,0-.54-.37.21.21,0,0,0-.15.05.18.18,0,0,0-.05.07.19.19,0,0,0,0,.08.11.11,0,0,0,0,.08.18.18,0,0,0,.05.07.2.2,0,0,0,.14.06.2.2,0,0,0,.11,0l0,.16a.44.44,0,0,1-.2,0,.28.28,0,0,1-.13,0,.25.25,0,0,1-.1-.08.39.39,0,0,1-.1-.25.4.4,0,0,1,0-.15.36.36,0,0,1,.08-.12.2.2,0,0,1,.12-.08.32.32,0,0,1,.14,0,.72.72,0,0,1,.37.13.73.73,0,0,1,.26.29v-.83h-1.13v-.14h1.43v.14Z"/><path class="cls-8" d="M153.36,24.63a.5.5,0,0,1-.36-.09.72.72,0,0,1-.16-.25.66.66,0,0,1,0-.28.7.7,0,0,1,.11-.38,3,3,0,0,1,.27-.35h-.49v-.14h.78v.14a.87.87,0,0,0-.35.28A.74.74,0,0,0,153,24q0,.51.42.51a.2.2,0,0,0,.12-.06v.17a.31.31,0,0,1-.13,0"/><path class="cls-8" d="M153.53,23.28v.56a5.07,5.07,0,0,1,.65-.35l.15.21a1.91,1.91,0,0,0-.12.47,1.17,1.17,0,0,0,.08.36l-.12,0a1,1,0,0,1-.09-.34,3,3,0,0,1,0-.52,2.16,2.16,0,0,0-.62.41l-.14-.13v-.72h-.12v-.14h1.2v.14Z"/><path class="cls-8" d="M155.67,23.28v1.26h-.16v-.09a.57.57,0,0,0-.07-.22.55.55,0,0,0-.14-.17.57.57,0,0,0-.4-.2.2.2,0,0,0-.15.05.18.18,0,0,0-.05.07.19.19,0,0,0,0,.08.24.24,0,0,0,0,.08.16.16,0,0,0,0,.07.22.22,0,0,0,.15.06l.11,0,.05.16a.49.49,0,0,1-.2,0,.28.28,0,0,1-.13,0,.28.28,0,0,1-.11-.08.38.38,0,0,1-.09-.25.77.77,0,0,1,0-.15.36.36,0,0,1,.08-.12.28.28,0,0,1,.12-.08.35.35,0,0,1,.14,0,.72.72,0,0,1,.37.13.73.73,0,0,1,.26.29v-.83h-1.12v-.14h1.42v.14Z"/><path class="cls-22" d="M124.35,15.93c0,.29,0,.57,0,.85a10.64,10.64,0,0,1-.88,3.43,11,11,0,0,1-.65,1.22,10.26,10.26,0,0,1-3.31,3.31,10,10,0,0,1-9,.81,10.24,10.24,0,0,1-3.82-2.68,10.56,10.56,0,0,1-2.25-4.13,10.35,10.35,0,0,1,5.26-12,8.17,8.17,0,0,0-.73,1.11l-.06.1-.39.35a6.33,6.33,0,0,0-.46.45l-.1.11-.09.11-.16.18a3.68,3.68,0,0,0-.3.39,8.52,8.52,0,0,0-1.05,1.83,1.67,1.67,0,0,0-.08.2c0,.06-.06.15-.09.23a.56.56,0,0,0,0,.12,2.17,2.17,0,0,0-.12.36l-.07.23,0,.13a1.55,1.55,0,0,1,0,.23c-.06.26-.11.52-.15.79a1.23,1.23,0,0,1,0,.2,1.24,1.24,0,0,0,0,.18c0,.05,0,.15,0,.23v.65a9.1,9.1,0,0,0,1.86,5.53,8.94,8.94,0,0,0,4.81,3.2,8.82,8.82,0,0,0,5.73-.46,9,9,0,0,0,4.25-3.93l.23-.47h0a9.1,9.1,0,0,0,.84-3.55v-.3a8.44,8.44,0,0,0,0-.87l0,0a4.48,4.48,0,0,1,.4.36c.13-.21.26-.42.4-.62A10.06,10.06,0,0,1,124.3,15c0,.3,0,.61,0,.92"/><path class="cls-23" d="M123.34,14.9v.29a8.39,8.39,0,0,1-.85,3.55h0c-.07.16-.15.32-.23.47a9,9,0,0,1-2.61,3,8.84,8.84,0,0,1-4.52,1.67,8.75,8.75,0,0,1-4.71-1,9,9,0,0,1-3.53-3.31,9.14,9.14,0,0,1-1.3-4.7v-.66a.9.9,0,0,1,0-.23c0-.07,0-.11,0-.16a1.06,1.06,0,0,0,0-.2,6.86,6.86,0,0,1,.14-.79l.06-.23,0-.13.07-.23.12-.36s0-.08,0-.12l.09-.23.08-.2a9.15,9.15,0,0,1,1.06-1.85c.1-.14.2-.26.3-.39l.16-.18a.57.57,0,0,1,.1-.11l.09-.11.46-.45a4.36,4.36,0,0,1,.4-.35.93.93,0,0,0-.05.1l0,.08a10.52,10.52,0,0,0-1,3.64,9.83,9.83,0,0,0,0,1.09c0,4.71,2.72,8.53,6.08,8.53h.35A5.31,5.31,0,0,0,118,19.77a5.5,5.5,0,0,0,1.58-3.84v-.15A5.48,5.48,0,0,0,117.9,12a8.83,8.83,0,0,1,5.35,2l0,0c0,.28,0,.57,0,.87"/><path class="cls-22" d="M121,9.29s-7.25-1.39-10.65,5a8.76,8.76,0,0,1,5.77-6.44l-1-1.94a7.28,7.28,0,0,1,5.7-1.41Z"/><path class="cls-23" d="M112,12.7s2.89-3.84,9.51-2.84l-.08-2.24a7.92,7.92,0,0,1,5,1.87l-2.76,4.22a7.92,7.92,0,0,0-5.81-2.29A12.63,12.63,0,0,0,112,12.7"/><path class="cls-23" d="M109.12,16.17s-3.3-7.32,4.38-12l1.84,3.42a8.72,8.72,0,0,0-2.58,1.6,11.58,11.58,0,0,0-3.63,7"/><path class="cls-23" d="M123.35,14.07a7.56,7.56,0,0,1,0,.83v.28h0a9.16,9.16,0,0,1-.84,3.57h0c-.07.16-.15.31-.23.47a9.24,9.24,0,0,1-2.65,3,8.82,8.82,0,0,1-9.27.7,9,9,0,0,1-3.55-3.33,9.22,9.22,0,0,1-1.31-4.72v-.4l0-.25v0a1.66,1.66,0,0,1,0-.24c0-.06,0-.09,0-.14v0a1.48,1.48,0,0,1,0-.19c0-.26.08-.53.14-.79l0-.2v0a.5.5,0,0,1,0-.13,1.91,1.91,0,0,1,.07-.24c0-.13.07-.25.11-.36s0-.07,0-.12l.09-.23a1,1,0,0,1,.08-.2,9.31,9.31,0,0,1,1-1.84l.3-.39.16-.19.1-.11.1-.1c.14-.16.3-.31.46-.46l.39-.35h0l.09-.08-.12.22h0l-.31.28c-.16.14-.31.3-.46.45l-.1.11-.09.1-.16.19c-.1.12-.19.23-.3.38a8.72,8.72,0,0,0-1,1.83l-.08.19-.09.23,0,.12-.12.36c0,.08-.05.16-.07.23l0,.13v.05c0,.06,0,.13-.05.19a7.09,7.09,0,0,0-.14.78,1.08,1.08,0,0,1,0,.19V14c0,.07,0,.15,0,.24h0a1,1,0,0,1,0,.24v.4a9,9,0,0,0,1.3,4.66,8.73,8.73,0,0,0,12.66,2.62,9.06,9.06,0,0,0,2.58-3,4,4,0,0,0,.23-.47v0a9.1,9.1,0,0,0,.84-3.53h0V14.9a8.11,8.11,0,0,0,0-.86v0Z"/><path class="cls-22" d="M112,18l.27.23a1,1,0,0,0,.27-.23.11.11,0,0,0,0-.08.09.09,0,0,0,0-.07h-.46s0,0-.05,0a.16.16,0,0,0,0,.12"/><path class="cls-22" d="M112.48,18.35l.17.2c0-.1,0-.23,0-.33a.86.86,0,0,0-.14.13"/><path class="cls-22" d="M112,18.22c0,.09,0,.23,0,.33l.17-.2a.86.86,0,0,0-.14-.13"/><path class="cls-22" d="M113.92,14.36h0a5.8,5.8,0,0,0-.59.36h0v0a.23.23,0,0,0,.1.07c.08-.05.44-.27.54-.35l0,0a0,0,0,0,0,0,0,.05.05,0,0,0,0,0h0"/><path class="cls-22" d="M114.2,14.19s0,.06,0,.11a1.57,1.57,0,0,0,0,.23.28.28,0,0,0,.09-.1.25.25,0,0,0,0-.12.14.14,0,0,0,0-.06l0-.05h-.06"/><path class="cls-22" d="M114.45,14.86c.16,0,.42.33.48.43a2.38,2.38,0,0,1,.11.7v0c.71-.09.84-.23.92-.73a1.63,1.63,0,0,0-.37-1.17,1.94,1.94,0,0,0-.34,0l-.84,0a.41.41,0,0,0,0,.16.5.5,0,0,0,.08.12.47.47,0,0,0,.12.09.4.4,0,0,0,.15,0s.09,0,.1.06v.06h-.17a.42.42,0,0,1-.19,0,.33.33,0,0,1-.15-.11c-.1.11-.21.22-.32.32v.53a.6.6,0,0,0,.23,0h.09c0-.1,0-.36,0-.46v-.05Z"/><path class="cls-22" d="M113.53,15a.22.22,0,0,0,0,.11.2.2,0,0,0,0,.11.36.36,0,0,0,.14.1.29.29,0,0,0,.16,0c0-.16,0-.46,0-.63-.11.09-.29.23-.35.29"/><path class="cls-22" d="M113.3,15.48a3.23,3.23,0,0,0,1.08.58v-.48a.58.58,0,0,0-.19,0H114a.93.93,0,0,1-.61-.27v0h0c0-.38-.15-.41-.23-.43h0a.21.21,0,0,0-.11,0,.24.24,0,0,0-.08.09h0v0a.24.24,0,0,0,.14,0c.1,0,.15.09.16.2a.23.23,0,0,0,0,.14.26.26,0,0,0,.07.11Z"/><path class="cls-22" d="M113,15.55h0v0l0,0c0,.06,0,.07.07.07s0,0,0,0a.33.33,0,0,0,0-.14.34.34,0,0,0-.06-.12c-.1-.13-.15-.2-.28-.2a.38.38,0,0,0-.18.09.66.66,0,0,0-.12.17.09.09,0,0,0,0,.07.08.08,0,0,0,0,0,.86.86,0,0,0,.13-.14l.08.05a.33.33,0,0,0,0,.14l0,0h.08s0,0,0,0,0,0,0,0l.06,0"/><path class="cls-22" d="M114.56,15.23v.95a.69.69,0,0,0,.3-.14c0-.46-.15-.76-.3-.81"/><path class="cls-22" d="M113.75,16a2.11,2.11,0,0,0,.33.49s.07,0,.19-.19a5.39,5.39,0,0,1-.52-.3"/><path class="cls-22" d="M115,16.21a2.11,2.11,0,0,1-.52.26l-.11,0,0,0a.07.07,0,0,0,0,.05.06.06,0,0,0,0,.06,4.91,4.91,0,0,0,.83-.32.39.39,0,0,0-.17-.14"/><path class="cls-22" d="M117.55,19.16c0,.1,0,.19,0,.28l.07,0a.1.1,0,0,0,0-.05,2.3,2.3,0,0,0,0-.37.67.67,0,0,1,0-.2.24.24,0,0,1,0-.08c0-.07.07-.23,0-.28a.08.08,0,0,0-.07,0h-.23a5.16,5.16,0,0,1-1-.06,3.38,3.38,0,0,0-.72-.11.25.25,0,0,0-.12,0,.75.75,0,0,0-.26.3v0h-.1s0,0,0,0,0-.11,0-.23l0-.08a2.62,2.62,0,0,0,.19-.73c-.2.09-.62.33-.74.4a4.34,4.34,0,0,0,.2.5c.18.37.27.45.29.46a4.91,4.91,0,0,0,.57-.09,10.85,10.85,0,0,1,1.26-.16l.17,0h0l0,0a.93.93,0,0,1,.24.46"/><path class="cls-22" d="M112.45,16.13s-.08,0-.08.19,0,0,0,0,0,0,0-.07v0h1.17c0-.05,0-.09-.07-.14Z"/><path class="cls-22" d="M113.49,14.2s-.62.14-.6-.18c0-.11.07-.15.13-.14s-.12-.23.15-.29a1.55,1.55,0,0,0,.2-.32c0-.09.1-.2.35-.14a1.11,1.11,0,0,1,.55.36c.14,0,.29,0,.23,0s-.09.09-.08.1.09,0-.16.06c0,.05.06.06.1.09s0,.06,0,.07,0,.13-.09.09-.13-.1-.17-.09-.13,0-.11.05.14.12,0,.15,0,.07,0,.1-.33.23-.46.28-.17,0-.16-.08a.16.16,0,0,1,.15-.1s0-.07,0-.06"/><path class="cls-22" d="M112.2,16.5h-.53l0-.21h.57Z"/><path class="cls-22" d="M115.84,16.49h2v-.31h-2.37Z"/><path class="cls-22" d="M113.82,17.08h0a4.75,4.75,0,0,1,.83.19c.11-.06.17-.13.17-.15l0-.07h.07l.13.05a.38.38,0,0,0,.15,0h0a6.72,6.72,0,0,0,.69-.5,1.07,1.07,0,0,0-.41-.21l-.18.07a2.37,2.37,0,0,1-.87.26.58.58,0,0,1-.26-.05.8.8,0,0,0-.29.26c0,.06,0,.1,0,.1"/><path class="cls-22" d="M113.92,17.26a4.17,4.17,0,0,0,.8.21c.15,0,.18-.18.27-.17s.12.08.27,0a3.16,3.16,0,0,0,.44-.38c0,.1,0,.36-.56.61s-1.84.63-1.86.81a.56.56,0,0,0,.31-.09.51.51,0,0,1,.15.23.65.65,0,0,1,0,.28c0,.28-.25.76-.25.9v.8c0,.06.11.4-.05.38a.92.92,0,0,0-.33,0c-.06,0-.19.12-.31.1s-.31-.07-.3-.13.14-.06.25-.1.18-.16.39-.23c0-.15-.07-1.19-.07-1.4a2.8,2.8,0,0,1,0-.87C113.21,18,113.69,17.25,113.92,17.26Z"/><path class="cls-22" d="M113.83,16.4a.51.51,0,0,0,.09.16l-1.23-.08s-.14-.09-.09-.11Z"/><path class="cls-22" d="M111.31,16.51h.25s.08,0,0-.13-.24-.16-.13-.33c-.11,0-.29-.06-.26.33h-.12a.31.31,0,0,0-.13-.17.29.29,0,0,0-.2-.05,4.1,4.1,0,0,0-1,.29,6.61,6.61,0,0,0,1,.22.6.6,0,0,0,.19-.06.38.38,0,0,0,.14-.14h.11a.85.85,0,0,0,.09.22v.23a.2.2,0,0,0-.08.08.2.2,0,0,0,0,.11c0,.14.1.14.12.14a.35.35,0,0,1,.16-.05.21.21,0,0,0-.08-.26v-.17s.1-.07.09-.13-.12-.06-.12-.14"/><path class="cls-22" d="M112.8,17.71a.34.34,0,0,0,.11-.17h0V16.8c0-.16-.31-.31-.33-.31h0a.32.32,0,0,1-.17.09.2.2,0,0,1-.11,0,.22.22,0,0,1-.09-.07h0c-.25,0-.38.31-.38.32h0a3.86,3.86,0,0,0,0,.68.45.45,0,0,0,.11.19c-.05.18-.31,1.17,0,1.28v.14h.83V19c.31-.14.11-1,0-1.23Zm-1-.9s.12-.26.3-.27l.1.07a.31.31,0,0,0,.13,0,.42.42,0,0,0,.2-.1c.09,0,.26.14.26.24v.73a.21.21,0,0,1-.07.12h-.16v-.31h-.56v.31h-.11a.54.54,0,0,1-.1-.16q0-.33,0-.66Zm.58,2.05h-.18l-.06,0a.1.1,0,0,1,0-.12l.06,0h.18l.06,0a.1.1,0,0,1,0,.12Zm.3,0-.41-.47-.37.47c-.25-.08-.09-.86,0-1.19h.78c.09.33.23,1.06,0,1.17"/><path class="cls-22" d="M112.56,17.23h0v-.06a0,0,0,0,0,0,0,.05.05,0,0,0,0,0h-.48a0,0,0,0,0,0,0h0a0,0,0,0,0,0,0v.06Z"/><path class="cls-22" d="M111.89,19.17h0v.07a0,0,0,0,0,0,0h.9l0,0s0,0,0,0v0Z"/><path class="cls-24" d="M428.78,23.33V18.6H427.4V17.13h4.46V18.6h-1.39v4.73Zm3.91,0v-6.2h1.76a7.46,7.46,0,0,1,1.44.1,1.78,1.78,0,0,1,.71.32,1.65,1.65,0,0,1,.51.65,2,2,0,0,1,.18.86,1.81,1.81,0,0,1-.35,1.17,1.75,1.75,0,0,1-1,.6l1.69,2.5h-1.91l-1.42-2.43v2.43Zm1.58-3.27h.31a1.39,1.39,0,0,0,.8-.18.68.68,0,0,0,.25-.59.84.84,0,0,0-.23-.66,1.25,1.25,0,0,0-.79-.2h-.34Z"/><path class="cls-24" d="M437.51,23.33l2.14-6.2h2.12l2.14,6.2h-1.68l-.32-1.11h-2.4l-.32,1.11ZM439.88,21h1.68l-.63-2a2.83,2.83,0,0,1-.08-.3c0-.14-.08-.32-.13-.53,0,.14-.07.29-.11.43s-.07.27-.11.4Zm4.62,2.32v-6.2h1.63l2.34,3.19a3.79,3.79,0,0,1,.22.39c.1.2.22.43.34.7,0-.23,0-.46-.07-.68a4.89,4.89,0,0,1,0-.54V17.13h1.62v6.2h-1.62l-2.34-3.2c0-.07-.12-.2-.22-.39s-.22-.43-.34-.69c0,.26.06.49.07.69a4.58,4.58,0,0,1,0,.53v3.06Zm7.66-2a3.48,3.48,0,0,0,.74.64,1.45,1.45,0,0,0,.73.21.86.86,0,0,0,.56-.18.66.66,0,0,0,0-.94,2.45,2.45,0,0,0-.86-.35,2.68,2.68,0,0,1-1.28-.64A1.49,1.49,0,0,1,451.7,19a1.88,1.88,0,0,1,.6-1.45,2.12,2.12,0,0,1,1.54-.56,3.44,3.44,0,0,1,1,.13,3.17,3.17,0,0,1,.87.42l-.53,1.21a2.51,2.51,0,0,0-.59-.37,1.61,1.61,0,0,0-.6-.12.87.87,0,0,0-.5.14.49.49,0,0,0-.19.38.47.47,0,0,0,.17.37,2,2,0,0,0,.65.27l.07,0a3.27,3.27,0,0,1,1.36.61,1.64,1.64,0,0,1,.34.55,2.25,2.25,0,0,1,.11.71,2,2,0,0,1-.65,1.58,2.42,2.42,0,0,1-1.72.6,3,3,0,0,1-2.2-.91Zm4.76,2v-6.2h3.79v1.36h-2.15v1.08h2V20.9h-2v2.43Zm4.71,0v-6.2h3.8v1.36h-2.15v1.08h2V20.9h-2v1h2.15v1.39Zm4.91,0v-6.2h1.77a7.46,7.46,0,0,1,1.44.1,1.84,1.84,0,0,1,.71.32,1.65,1.65,0,0,1,.51.65,2,2,0,0,1,.18.86,1.87,1.87,0,0,1-.35,1.17,1.75,1.75,0,0,1-1,.6l1.69,2.5h-1.91l-1.42-2.43v2.43Zm1.59-3.27h.31a1.41,1.41,0,0,0,.8-.18.71.71,0,0,0,.25-.59.81.81,0,0,0-.24-.66,1.23,1.23,0,0,0-.79-.2h-.33Z"/><path class="cls-25" d="M446.76,7.06l1.12,4.26c.06.19.1.39.15.6s.09.44.14.71c.06-.32.11-.58.16-.78s.08-.39.12-.53l1.05-4.26H452l-2.53,9h-2.27l-1.1-3.82c0-.13-.11-.4-.2-.79,0-.17-.08-.31-.1-.41q0,.13-.09.36-.14.6-.21.84L444.38,16h-2.27l-2.52-9h2.46l1,4.28c.05.22.1.44.14.66s.09.45.13.68l.12-.54.2-.8,1.12-4.28Zm6.11,9v-9h2.46v9Zm4.43,0v-9h2.55a10.78,10.78,0,0,1,2.09.14,2.68,2.68,0,0,1,1,.46,2.47,2.47,0,0,1,.75.94A3,3,0,0,1,464,9.85a2.66,2.66,0,0,1-.51,1.69,2.5,2.5,0,0,1-1.49.86L464.4,16h-2.76l-2.05-3.5V16Zm2.29-4.72H460a2,2,0,0,0,1.15-.27,1,1,0,0,0,.36-.84,1.21,1.21,0,0,0-.33-1,1.8,1.8,0,0,0-1.14-.28h-.49ZM465.33,16v-9h5.48V9H467.7v1.56h2.93V12.5H467.7V14h3.11v2Z"/><path class="cls-26" d="M427.47,7h11.16V8.77H427.47Z"/><path class="cls-27" d="M427.47,10.44h11.16v1.77H427.47Z"/><path class="cls-28" d="M427.47,14.19h11.16V16H427.47Z"/><path class="cls-25" d="M365.76,7.68h4.07c1.5,0,3.14.36,3.14,2.18a2,2,0,0,1-1.14,1.75,2.08,2.08,0,0,1,1.5,2.06c0,2.08-1.53,2.71-3.39,2.71h-4.18V7.68ZM368,11.1h1.76a.84.84,0,0,0,.93-.83c0-.63-.46-.84-.93-.84H368V11.1Zm0,3.46h1.82c.72,0,1.22-.25,1.22-1s-.54-1-1.22-1H368Z"/><path class="cls-25" d="M376.92,7.68h2.3l3.26,8.7h-2.37l-.53-1.56h-3L376,16.38h-2.32Zm.15,5.46h2l-1-3.05h0Z"/><path class="cls-25" d="M383.11,7.68h2.33l3,5.36h0V7.68h2.14v8.7h-2.33l-3-5.42h0v5.42h-2.13Z"/><path class="cls-25" d="M392.16,7.68h2.27V11l2.87-3.34h2.81l-3.22,3.42,3.62,5.28H397.7l-2.34-3.66-.93,1v2.68h-2.27V7.68Z"/><path class="cls-29" d="M360.06,19.54h-1.79v4.65h-1.56V19.54h-1.79V18.19h5.14Z"/><path class="cls-29" d="M360.75,18.19h3.05c1.06,0,2.1.48,2.1,1.69a1.53,1.53,0,0,1-.94,1.5v0c.64.15.82.86.87,1.44,0,.25,0,1.13.25,1.35h-1.54a2.85,2.85,0,0,1-.18-1c0-.6-.14-1.23-.87-1.23h-1.18v2.19h-1.56Zm1.56,2.61h1.31a.65.65,0,0,0,.72-.71c0-.44-.35-.65-.79-.65h-1.24Z"/><path class="cls-29" d="M368.43,18.19H370l2.24,6h-1.63l-.37-1.08h-2.09l-.37,1.08h-1.61Zm.1,3.76h1.36l-.66-2.09h0Z"/><path class="cls-29" d="M372.7,18.19h1.6l2.08,3.7h0v-3.7h1.47v6h-1.61l-2.08-3.74h0v3.74H372.7v-6Z"/><path class="cls-29" d="M380.15,22.17c0,.71.47.93,1.13.93.47,0,1-.16,1-.61s-.86-.63-1.72-.87-1.76-.63-1.76-1.73c0-1.31,1.32-1.82,2.45-1.82s2.39.58,2.4,1.93h-1.56c0-.55-.49-.72-1-.72-.33,0-.75.11-.75.51s.86.54,1.73.79,1.74.64,1.74,1.73c0,1.52-1.29,2-2.61,2s-2.59-.6-2.6-2.14Z"/><path class="cls-29" d="M384.53,18.19h4.41v1.25h-2.85v1.23h2.47v1.21h-2.47v2.31h-1.56Z"/><path class="cls-29" d="M389.66,18.19h4.77v1.25h-3.21v1h2.94V21.7h-2.94v1.14h3.3v1.35h-4.86v-6Z"/><path class="cls-29" d="M395.41,18.19h3c1.06,0,2.1.48,2.1,1.69a1.53,1.53,0,0,1-.94,1.5v0c.64.15.82.86.87,1.44,0,.25.05,1.13.26,1.35H399.2a3.11,3.11,0,0,1-.18-1c0-.6-.14-1.23-.87-1.23H397v2.19h-1.56v-6ZM397,20.8h1.31a.65.65,0,0,0,.72-.71c0-.44-.35-.65-.79-.65H397Z"/><rect class="cls-30" x="354.92" y="7.68" width="9.45" height="1.89"/><rect class="cls-30" x="354.92" y="14.49" width="9.45" height="1.89"/><rect class="cls-30" x="354.92" y="11.08" width="9.45" height="1.89"/><rect class="cls-31" width="500" height="30"/></g></g></svg>