<svg width="434" height="434" viewBox="0 0 434 434" fill="none" xmlns="http://www.w3.org/2000/svg">
<path d="M389.732 356.496H49.1519C16.8311 356.496 63.0096 342.031 63.0096 342.031H368.943C368.943 342.031 418.785 356.496 389.732 356.496Z" fill="#7CC2F7"/>
<path d="M114.947 317.649H90.833V348.614H114.947V317.649Z" fill="#F5B391"/>
<path d="M114.948 348.614V317.649H129.107L128.887 348.614H114.948Z" fill="#E8976A"/>
<g style="mix-blend-mode:soft-light">
<path d="M99.8404 324.697H103.444V317.65H99.8404V324.697Z" fill="white"/>
</g>
<path d="M79.7041 348.614V317.649H90.8336L90.66 348.614H79.7041Z" fill="#E8976A"/>
<path d="M92.1552 293.495H74.29V317.65H92.1552V293.495Z" fill="#F5AE89"/>
<path d="M76.3762 317.65V293.495H62.2998L62.4873 317.65H76.3762Z" fill="#E8976A"/>
<g style="mix-blend-mode:soft-light">
<path d="M85.1298 293.495H82.3184V298.992H85.1298V293.495Z" fill="white"/>
</g>
<path d="M121.897 293.495H104.032V317.65H121.897V293.495Z" fill="#F5B391"/>
<path d="M104.033 317.65V293.495H92.042L92.2295 317.65H104.033Z" fill="#E8976A"/>
<path d="M107.863 269.597H89.998V293.751H107.863V269.597Z" fill="#F5B391"/>
<path d="M89.9984 293.751V269.598H78.0078L78.1953 293.751H89.9984Z" fill="#E8976A"/>
<path d="M112.175 276.515H94.3094L89.998 269.598H107.863L112.175 276.515Z" fill="#FAE1D4"/>
<path d="M95.741 269.598H77.8758L73.5645 262.68H91.4305L95.741 269.598Z" fill="#F5B391"/>
<path d="M74.1006 276.211H86.0911L89.998 269.598H78.0075L74.1006 276.211Z" fill="#FAE1D4"/>
<path d="M58.3926 300.108H72.4689L76.3758 293.495H62.2994L58.3926 300.108Z" fill="#FAE1D4"/>
<path d="M121.897 293.495H111.18V317.65H121.897V293.495Z" fill="#E8976A"/>
<path d="M133.356 300.413H115.491L111.18 293.495H129.045L133.356 300.413Z" fill="#FAE1D4"/>
<path d="M84.6961 317.649H59.7168V348.614H84.6961V317.649Z" fill="#FABFA0"/>
<g style="mix-blend-mode:soft-light">
<path d="M70.4049 324.697H74.0088V317.65H70.4049V324.697Z" fill="white"/>
</g>
<path d="M122.095 194.47H65.4083C63.4337 194.47 61.833 196.07 61.833 198.045V230.439C61.833 232.413 63.4337 234.014 65.4083 234.014H122.095C124.069 234.014 125.67 232.413 125.67 230.439V198.045C125.67 196.07 124.069 194.47 122.095 194.47Z" fill="#179CFB"/>
<path d="M72.6219 204.461H77.3091V202.582C77.3077 202.282 77.1877 201.995 76.9752 201.783C76.7628 201.572 76.4752 201.453 76.1755 201.453H69.6134V205.988C69.6134 206.258 69.4693 206.479 69.1976 206.479C68.9268 206.479 68.8201 206.258 68.8201 205.988V201.453H67.6873C67.3876 201.453 67.1 201.572 66.8876 201.783C66.6751 201.995 66.5551 202.282 66.5537 202.582V208.074H72.707C72.8001 208.072 72.8908 208.105 72.9616 208.165C73.0325 208.226 73.0787 208.31 73.0915 208.402C73.0967 208.453 73.0912 208.505 73.0753 208.553C73.0594 208.602 73.0335 208.647 72.9992 208.685C72.965 208.723 72.9231 208.753 72.8763 208.774C72.8296 208.795 72.779 208.806 72.7278 208.806H66.5537V211.071C66.5539 211.372 66.6735 211.66 66.886 211.872C67.0986 212.085 67.3868 212.204 67.6873 212.204H76.1764C76.4769 212.204 76.7651 212.085 76.9776 211.872C77.1902 211.66 77.3097 211.372 77.31 211.071V205.206H72.6002C72.548 205.206 72.4963 205.195 72.4486 205.174C72.4009 205.153 72.3582 205.122 72.3232 205.083C72.2883 205.044 72.2619 204.999 72.2457 204.949C72.2296 204.899 72.2241 204.847 72.2296 204.795C72.2425 204.701 72.2897 204.615 72.362 204.553C72.4344 204.491 72.5269 204.459 72.6219 204.461Z" fill="#EDCF85"/>
<path d="M120.875 223.001H107.871V229.563H120.875V223.001Z" fill="#EDECEB"/>
<path d="M78.6892 216.206H66.5537V219.268H78.6892V216.206Z" fill="#EDECEB"/>
<path d="M92.7585 216.206H80.3965V219.268H92.7585V216.206Z" fill="#EDECEB"/>
<path d="M120.804 216.206H108.177V219.268H120.804V216.206Z" fill="#EDECEB"/>
<path d="M106.375 216.206H94.6934V219.268H106.375V216.206Z" fill="#EDECEB"/>
<path d="M104.053 223.001H66.627V226.954H104.053V223.001Z" fill="#EDCF85"/>
<path d="M120.876 198.188H104.774V202.798H120.876V198.188Z" fill="#EDECEB"/>
<path d="M235.488 340.303L237.795 349.331H245.092C245.474 347.768 244.263 345.82 241.156 345.396C241.156 345.396 240.521 342.973 241.396 340.591C242.271 338.208 237.795 337.85 237.795 337.85L235.488 340.303Z" fill="white"/>
<path d="M331.89 285.784C331.777 285.784 331.681 285.661 331.675 285.503C331.675 285.496 331.675 285.474 331.675 285.437C331.691 284.189 331.618 277.93 328.566 277.268C328.235 277.195 327.651 277.371 327.09 278.102C326.489 278.889 325.528 280.865 325.875 285.259C325.888 285.422 325.802 285.568 325.684 285.586C325.566 285.604 325.459 285.485 325.446 285.326C325.082 280.678 326.134 278.537 326.793 277.674C327.464 276.796 328.182 276.587 328.631 276.684C332.036 277.424 332.122 284.117 332.103 285.451V285.484C332.103 285.643 332.016 285.778 331.898 285.787L331.89 285.784Z" fill="#003459"/>
<path d="M322.758 283.978L320.41 323.13H329.936L328.785 283.978H322.758Z" fill="#30ACB3"/>
<path d="M330.244 283.978L329.937 323.13H345.576L343.263 283.978H330.244Z" fill="#9EF3F7"/>
<path d="M327.206 283.978L325.59 318.319L329.936 323.13L330.243 283.978H327.206Z" fill="#4BD5DE"/>
<path d="M325.59 318.318L320.41 323.13H329.936L325.59 318.318Z" fill="#4BD5DE"/>
<path d="M339.721 285.784C339.607 285.784 339.511 285.661 339.505 285.503C339.505 285.497 339.505 285.474 339.505 285.437C339.522 284.189 339.448 277.93 336.396 277.268C336.065 277.196 335.481 277.371 334.921 278.102C334.32 278.889 333.358 280.865 333.705 285.259C333.718 285.422 333.632 285.569 333.514 285.586C333.395 285.604 333.288 285.485 333.276 285.326C332.912 280.678 333.963 278.537 334.622 277.675C335.294 276.796 336.011 276.587 336.46 276.684C339.866 277.424 339.951 284.117 339.932 285.451V285.484C339.932 285.643 339.846 285.779 339.728 285.787L339.721 285.784Z" fill="#003459"/>
<path d="M343.262 283.978H337.433L334.78 323.13H345.576L343.262 283.978Z" fill="#45C7CF"/>
<path d="M347.144 285.784C347.03 285.784 346.934 285.661 346.928 285.503V285.437C346.945 284.189 346.872 277.93 343.82 277.268C343.489 277.195 342.905 277.371 342.344 278.102C341.743 278.889 340.782 280.865 341.129 285.259C341.142 285.422 341.056 285.568 340.937 285.586C340.818 285.604 340.713 285.485 340.7 285.326C340.336 280.678 341.387 278.537 342.046 277.674C342.718 276.796 343.435 276.587 343.884 276.684C347.29 277.424 347.375 284.117 347.356 285.451V285.484C347.356 285.643 347.269 285.778 347.151 285.787L347.144 285.784Z" fill="#003459"/>
<path d="M338.011 283.978L335.662 323.13H345.188L344.038 283.978H338.011Z" fill="#1AA371"/>
<path d="M345.497 283.978L345.188 323.13H360.829L358.515 283.978H345.497Z" fill="#24E09B"/>
<path d="M342.46 283.978L340.843 318.319L345.189 323.13L345.497 283.978H342.46Z" fill="#21CC8D"/>
<path d="M340.842 318.318L335.662 323.13H345.188L340.842 318.318Z" fill="#21CC8D"/>
<path d="M354.974 285.784C354.861 285.784 354.765 285.661 354.759 285.503C354.759 285.497 354.759 285.474 354.759 285.437C354.775 284.189 354.702 277.93 351.65 277.268C351.319 277.196 350.735 277.371 350.174 278.102C349.573 278.889 348.612 280.865 348.959 285.259C348.972 285.422 348.886 285.569 348.768 285.586C348.65 285.604 348.543 285.485 348.53 285.326C348.166 280.678 349.218 278.537 349.877 277.675C350.548 276.796 351.265 276.587 351.715 276.684C355.12 277.424 355.206 284.117 355.187 285.451V285.484C355.187 285.643 355.1 285.779 354.982 285.787L354.974 285.784Z" fill="#003459"/>
<path d="M358.405 284.003H353.009L350.778 323.156H360.72L358.405 284.003Z" fill="#1AA371"/>
<path d="M362.612 285.784C362.498 285.784 362.403 285.661 362.397 285.503C362.397 285.496 362.397 285.474 362.397 285.437C362.413 284.189 362.339 277.93 359.287 277.268C358.957 277.195 358.372 277.371 357.812 278.102C357.21 278.889 356.254 280.865 356.597 285.259C356.609 285.422 356.523 285.568 356.405 285.586C356.287 285.604 356.179 285.485 356.166 285.326C355.803 280.678 356.854 278.537 357.513 277.674C358.184 276.796 358.902 276.587 359.352 276.684C362.757 277.424 362.843 284.117 362.824 285.451V285.484C362.824 285.643 362.737 285.778 362.62 285.787L362.612 285.784Z" fill="#003459"/>
<path d="M353.53 284.033L351.131 323.131L360.708 323.186L359.557 284.033H353.53Z" fill="#30ACB3"/>
<path d="M361.015 284.033L360.707 323.186H376.348L374.033 284.033H361.015Z" fill="#9EF3F7"/>
<path d="M357.978 284.033L356.361 318.375L360.707 323.186L361.016 284.033H357.978Z" fill="#4BD5DE"/>
<path d="M356.311 318.318L351.131 323.13H360.657L356.311 318.318Z" fill="#4BD5DE"/>
<path d="M363.916 285.229C364.03 285.222 364.131 285.34 364.145 285.498C364.145 285.504 364.145 285.526 364.145 285.564C364.186 286.81 364.554 293.057 367.632 293.55C367.966 293.603 368.541 293.395 369.065 292.634C369.628 291.814 370.491 289.787 369.942 285.418C369.921 285.256 370 285.105 370.116 285.08C370.231 285.056 370.346 285.167 370.367 285.33C370.947 289.951 369.998 292.149 369.38 293.047C368.751 293.963 368.044 294.213 367.592 294.14C364.155 293.594 363.756 286.914 363.711 285.58V285.547C363.701 285.388 363.784 285.249 363.901 285.233L363.916 285.229Z" fill="#003459"/>
<path d="M264.139 270.705C264.139 270.705 256.7 275.168 255.361 281.417C254.022 287.666 255.218 307.824 255.218 307.824L237.797 337.848L241.397 340.59C241.397 340.59 264.287 315.041 267.412 308.494C269.01 300.758 271.132 272.491 271.132 272.491L264.139 270.705Z" fill="#004A7E"/>
<path d="M275.203 275.715L290.159 345.004C289.888 346.065 286.518 346.867 285.874 345.992C285.874 345.992 260.543 287.689 260.559 278.613C260.574 269.536 273.066 269.217 275.203 275.715Z" fill="#004A7E"/>
<path d="M285.873 345.993C293.165 345.173 293.034 340.72 297.359 342.899C297.748 344.165 294.012 349.52 286.417 349.52C285.426 347.915 285.873 345.993 285.873 345.993Z" fill="white"/>
<path d="M279.339 260.276C278.888 262.19 278.338 264.079 277.689 265.935C276.821 268.452 275.923 270.61 275.122 273.119C274.82 274.068 274.532 275.067 274.265 276.157C274.265 276.17 274.258 276.183 274.256 276.195C274.255 276.207 268.228 277.084 262.057 273.684C262.206 272.685 262.326 271.721 262.424 270.791C263.552 260.097 261.788 253.813 267.915 250.369C271.319 251.248 272.307 251.744 275.709 252.591C277.071 254.434 279.132 257.682 279.339 260.276Z" fill="#337ACC"/>
<path d="M275.71 252.587C275.68 252.382 276.809 244.174 276.809 244.174L271.219 242.168L267.915 250.366C270.525 251.063 273.119 251.82 275.71 252.587Z" fill="#FFB1A3"/>
<path d="M277.529 286.507C270.232 291.926 254.935 287.319 254.935 287.319C253.36 277.972 262.422 270.787 262.422 270.787L272.175 272.578L275.12 273.119H275.142L276.305 279.645L277.529 286.507Z" fill="#337ACC"/>
<path d="M275.144 273.123L276.307 279.649C273.612 275.036 267.354 264.321 264.58 259.571C269.555 257.913 274.324 261.877 277.687 265.935C276.819 268.453 275.921 270.611 275.119 273.12L275.144 273.123Z" fill="#0076C9"/>
<path d="M278.157 247.834C274.275 249.144 268.715 244.43 268.107 239.781C267.498 235.132 270.297 230.927 274.356 230.398C276.439 230.127 278.268 230.797 279.644 232.14C280.955 233.421 281.85 235.312 282.147 237.581C282.188 237.889 282.218 238.197 282.234 238.505C282.534 242.828 280.879 246.916 278.157 247.834Z" fill="#FFB1A3"/>
<path d="M270.548 236.554C270.906 236.885 271.295 237.181 271.709 237.439C272.028 237.578 272.356 237.699 272.687 237.81C273.208 237.929 273.744 238.022 274.276 238.096C275.837 238.308 277.419 238.33 278.986 238.159C280.054 238.044 281.111 237.852 282.151 237.584V237.584C281.854 235.315 280.958 233.423 279.648 232.142C278.172 231.685 276.684 231.525 275.694 231.831C272.891 232.699 269.773 234.638 270.139 236.432C270.212 236.419 270.287 236.423 270.358 236.444C270.429 236.465 270.495 236.503 270.548 236.554Z" fill="#E68E7E"/>
<path d="M271.303 228.26C275.823 227.479 279.933 228.841 282.016 232.558C285.297 238.409 270.923 237.339 270.923 237.339C270.923 237.339 268.118 245.218 275.745 248.927C275.745 248.927 267.412 251.531 263.825 246.574C259.769 236.083 263.826 229.558 271.303 228.26Z" fill="#003459"/>
<path d="M271.865 240.37C271.901 239.35 271.216 238.498 270.333 238.466C269.451 238.434 268.706 239.235 268.669 240.255C268.632 241.274 269.318 242.126 270.2 242.158C271.083 242.19 271.828 241.389 271.865 240.37Z" fill="#FFB1A3"/>
<path d="M300.588 272.789L296.891 274.41C296.398 277.188 302.074 278.971 302.81 276.361C303.375 274.364 300.588 272.789 300.588 272.789Z" fill="#FFB1A3"/>
<path d="M296.739 276.771C296.739 276.771 297.434 278.236 298.609 278.498C299.31 278.654 301.132 279.125 300.742 277.255C300.184 274.589 297.149 275.753 296.739 276.771Z" fill="#FFB1A3"/>
<path d="M325.345 348.876C327.944 347.803 329.181 344.826 328.108 342.227C327.034 339.628 324.057 338.391 321.458 339.464C318.859 340.538 317.622 343.515 318.696 346.114C319.769 348.713 322.746 349.95 325.345 348.876Z" fill="#4D4E4E"/>
<path d="M328.651 345.147C328.925 343.463 327.781 341.876 326.097 341.602C324.413 341.329 322.826 342.473 322.553 344.157C322.279 345.841 323.423 347.428 325.107 347.701C326.791 347.974 328.378 346.831 328.651 345.147Z" fill="#98C5E3"/>
<path d="M326.171 343.56L323.096 342.028V337.515H318.743V342.715L324.888 345.787C326.808 346.466 327.662 344.249 326.171 343.56Z" fill="#003459"/>
<path d="M375.439 348.251C377.436 346.253 377.436 343.014 375.439 341.017C373.441 339.019 370.202 339.019 368.205 341.017C366.207 343.014 366.207 346.253 368.205 348.251C370.202 350.248 373.441 350.248 375.439 348.251Z" fill="#4D4E4E"/>
<path d="M374.886 345.147C375.159 343.463 374.015 341.876 372.331 341.602C370.647 341.329 369.06 342.473 368.787 344.157C368.514 345.841 369.657 347.428 371.341 347.701C373.025 347.974 374.612 346.831 374.886 345.147Z" fill="#98C5E3"/>
<path d="M372.403 343.56L369.329 342.028V337.515H364.977V342.715L371.12 345.787C373.041 346.466 373.894 344.249 372.403 343.56Z" fill="#003459"/>
<path d="M302.774 277.526C303.015 276.507 302.383 275.486 301.364 275.245C300.344 275.004 299.323 275.636 299.082 276.655C298.842 277.675 299.473 278.696 300.492 278.937C301.512 279.177 302.533 278.546 302.774 277.526Z" fill="#003459"/>
<path d="M377.501 324.011L315.803 323.983C315.617 323.983 315.497 323.902 315.497 323.778L315.622 288.862C315.622 288.751 315.716 288.62 315.869 288.514C316.018 288.412 316.193 288.354 316.374 288.348L386.508 288.586C386.733 288.586 386.855 288.691 386.822 288.847L378.305 323.552C378.251 323.691 378.146 323.804 378.011 323.868C377.911 323.925 377.803 323.966 377.69 323.989C377.628 324.003 377.565 324.011 377.501 324.011V324.011ZM316.66 289.065L316.527 323.299L377.287 323.292L385.599 289.341L316.66 289.065Z" fill="#003459"/>
<path d="M383.206 300.927L383.52 300.482L316.235 299.923L315.963 300.344L383.206 300.927Z" fill="#003459"/>
<path d="M380.321 312.718L380.623 312.28L316.186 311.806L315.923 312.221L380.321 312.718Z" fill="#003459"/>
<path d="M372.193 323.758C372.234 323.752 372.274 323.737 372.308 323.713C372.342 323.688 372.369 323.656 372.388 323.619L380.902 288.908C380.917 288.844 380.847 288.809 380.746 288.83C380.701 288.836 380.658 288.853 380.621 288.88C380.584 288.906 380.554 288.941 380.534 288.982L372.027 323.681C372.013 323.742 372.081 323.778 372.18 323.76L372.193 323.758Z" fill="#003459"/>
<path d="M367.072 323.757C367.113 323.752 367.152 323.736 367.186 323.712C367.22 323.687 367.247 323.655 367.265 323.618L375.006 288.885C375.02 288.822 374.949 288.789 374.848 288.81C374.804 288.816 374.762 288.834 374.725 288.86C374.689 288.887 374.66 288.921 374.64 288.962L366.908 323.682C366.895 323.742 366.963 323.776 367.062 323.758L367.072 323.757Z" fill="#003459"/>
<path d="M361.945 323.756C361.986 323.75 362.025 323.734 362.059 323.71C362.092 323.685 362.119 323.653 362.137 323.615L369.102 288.861C369.115 288.799 369.043 288.767 368.944 288.789C368.9 288.795 368.858 288.813 368.822 288.839C368.787 288.866 368.758 288.901 368.74 288.941L361.782 323.683C361.77 323.742 361.839 323.776 361.937 323.757L361.945 323.756Z" fill="#003459"/>
<path d="M356.814 323.755C356.909 323.734 356.994 323.668 357.004 323.613L363.193 288.838C363.203 288.777 363.132 288.746 363.033 288.768C362.99 288.775 362.949 288.792 362.914 288.819C362.879 288.845 362.851 288.881 362.833 288.921L356.652 323.683C356.642 323.742 356.711 323.77 356.809 323.755L356.814 323.755Z" fill="#003459"/>
<path d="M351.677 323.753C351.773 323.732 351.856 323.666 351.865 323.61L357.276 288.815C357.285 288.754 357.212 288.724 357.114 288.747C357.016 288.771 356.928 288.839 356.919 288.9L351.516 323.683C351.507 323.742 351.578 323.77 351.674 323.754L351.677 323.753Z" fill="#003459"/>
<path d="M346.535 323.751C346.63 323.731 346.714 323.665 346.722 323.608L351.351 288.792C351.359 288.731 351.287 288.705 351.189 288.726C351.092 288.749 351.007 288.818 350.999 288.878L346.375 323.685C346.369 323.744 346.44 323.771 346.535 323.753V323.751Z" fill="#003459"/>
<path d="M341.385 323.75C341.479 323.728 341.558 323.663 341.568 323.607L345.416 288.769C345.422 288.71 345.35 288.682 345.254 288.706C345.158 288.731 345.074 288.798 345.067 288.858L341.226 323.684C341.222 323.742 341.298 323.771 341.385 323.75Z" fill="#003459"/>
<path d="M336.234 323.749C336.328 323.728 336.407 323.662 336.414 323.605L339.478 288.746C339.483 288.687 339.413 288.66 339.314 288.686C339.214 288.712 339.14 288.779 339.131 288.838L336.073 323.685C336.072 323.741 336.142 323.769 336.234 323.749Z" fill="#003459"/>
<path d="M331.075 323.747H331.081C331.174 323.724 331.255 323.66 331.255 323.603L333.533 288.723C333.533 288.664 333.46 288.636 333.368 288.664C333.276 288.692 333.195 288.759 333.189 288.817L330.917 323.684C330.915 323.739 330.985 323.763 331.075 323.747Z" fill="#003459"/>
<path d="M325.911 323.746H325.919C326.012 323.723 326.092 323.66 326.092 323.602L327.583 288.696C327.583 288.639 327.511 288.61 327.418 288.64C327.324 288.67 327.244 288.736 327.244 288.793L325.758 323.686C325.753 323.739 325.822 323.764 325.911 323.746Z" fill="#003459"/>
<path d="M320.741 323.744H320.752C320.844 323.721 320.918 323.658 320.92 323.6L321.621 288.678C321.621 288.622 321.547 288.597 321.455 288.624C321.363 288.651 321.281 288.72 321.281 288.777L320.587 323.687C320.587 323.738 320.655 323.764 320.741 323.744Z" fill="#003459"/>
<path d="M375.007 337.511H317.358C316.444 337.522 315.537 337.351 314.69 337.008C313.843 336.665 313.072 336.158 312.422 335.516C311.772 334.873 311.257 334.108 310.904 333.265C310.552 332.421 310.371 331.516 310.371 330.603C310.371 329.689 310.552 328.784 310.904 327.941C311.257 327.097 311.772 326.332 312.422 325.69C313.072 325.047 313.843 324.54 314.69 324.197C315.537 323.855 316.444 323.684 317.358 323.694H377.714C377.905 323.7 378.086 323.781 378.218 323.918C378.351 324.055 378.425 324.239 378.425 324.429C378.425 324.62 378.351 324.804 378.218 324.941C378.086 325.078 377.905 325.158 377.714 325.165H317.358C316.638 325.156 315.923 325.29 315.256 325.559C314.588 325.828 313.98 326.227 313.468 326.733C312.956 327.239 312.549 327.842 312.272 328.506C311.994 329.17 311.851 329.883 311.851 330.603C311.851 331.323 311.994 332.035 312.272 332.7C312.549 333.364 312.956 333.966 313.468 334.472C313.98 334.978 314.588 335.377 315.256 335.646C315.923 335.915 316.638 336.049 317.358 336.04H375.007C375.203 336.04 375.39 336.118 375.529 336.256C375.667 336.395 375.745 336.582 375.745 336.778C375.745 336.974 375.667 337.161 375.529 337.3C375.39 337.438 375.203 337.516 375.007 337.516V337.511Z" fill="#003459"/>
<path d="M315.497 325.451C315.302 325.451 315.115 325.373 314.977 325.236C314.839 325.098 314.762 324.911 314.762 324.716V281.286C314.76 280.373 314.397 279.498 313.752 278.853C313.106 278.207 312.231 277.844 311.318 277.843H300.935C300.836 277.846 300.738 277.83 300.646 277.794C300.554 277.759 300.469 277.705 300.398 277.636C300.327 277.568 300.271 277.486 300.232 277.395C300.194 277.304 300.174 277.206 300.174 277.107C300.174 277.008 300.194 276.911 300.232 276.82C300.271 276.729 300.327 276.646 300.398 276.578C300.469 276.509 300.554 276.456 300.646 276.42C300.738 276.385 300.836 276.368 300.935 276.372H311.316C312.619 276.373 313.868 276.891 314.789 277.813C315.711 278.734 316.229 279.983 316.23 281.286V324.719C316.229 324.913 316.151 325.099 316.014 325.236C315.877 325.373 315.691 325.45 315.497 325.451Z" fill="#003459"/>
<path d="M272.148 279.553L271.901 279.514C271.941 279.266 275.828 254.738 269.853 252.707C268.423 252.221 267.237 252.299 266.226 252.944C263.11 254.933 262.365 261.902 261.643 268.641C261.296 271.882 260.97 274.943 260.387 277.363L260.144 277.305C260.722 274.901 261.049 271.847 261.394 268.614C262.122 261.817 262.874 254.788 266.092 252.73C267.155 252.05 268.448 251.961 269.933 252.469C272.537 253.355 273.703 258.193 273.388 266.848C273.159 273.258 272.158 279.491 272.148 279.553Z" fill="#8A5046"/>
<path d="M271.519 287.945C269.27 289.255 259.106 287.472 257.73 285.527C257.98 282.296 258.804 279.538 260.139 277.21C264.27 277.09 268.245 277.822 272.083 279.304C272.611 281.733 272.371 285.485 271.519 287.945Z" fill="#BA6B5D"/>
<path d="M260.14 277.209C260.14 277.209 260.092 282.112 265.632 283.048C271.173 283.985 272.083 279.304 272.083 279.304C272.083 279.304 266.65 276.918 260.14 277.209Z" fill="#E88574"/>
<path d="M264.982 284.675C264.839 284.65 264.711 284.569 264.628 284.45C264.545 284.331 264.512 284.184 264.536 284.041L264.884 282.083C264.909 281.94 264.99 281.813 265.109 281.73C265.228 281.646 265.375 281.613 265.518 281.638V281.638C265.661 281.663 265.788 281.744 265.872 281.863C265.955 281.982 265.988 282.129 265.963 282.272L265.616 284.23C265.591 284.373 265.51 284.5 265.391 284.583C265.272 284.667 265.125 284.7 264.982 284.675V284.675Z" fill="#FFD690"/>
<path d="M300.13 274.755L295.068 273.105L294.075 277.185C296.853 277.57 298.841 277.839 298.841 277.839C302.142 278.29 302.142 275.494 300.13 274.755Z" fill="#FFB1A3"/>
<path d="M281.31 268.625L272.639 255.152C267.647 249.779 262.386 256.773 265.117 260.65C265.117 260.65 274.415 274.075 277.529 274.725C279.612 275.159 288.456 276.408 294.076 277.186L295.069 273.106L281.31 268.625Z" fill="#337ACC"/>
<path d="M123.366 146.89C125.092 136.661 140.845 132.048 140.536 138.72L212.754 139.143C217.755 139.172 221.812 143.672 221.816 149.199L221.963 339.127C221.967 344.856 217.841 349.534 212.744 349.577L139.023 350.21C138.566 351.17 137.71 352.045 136.36 352.775C127.906 352.955 123.852 348.782 122.37 344.059C121.87 342.736 121.621 341.331 121.637 339.916C121.933 337.44 122.831 149.29 123.366 146.89Z" fill="#0088E8"/>
<path d="M137.149 352.8L221.768 352.255C227.048 352.221 231.316 347.413 231.31 341.522L230.992 146.202C230.983 140.521 226.78 135.907 221.602 135.89L138.626 135.62C133.407 135.604 129.138 140.211 129.094 145.918L127.59 342.141C127.545 348.06 131.825 352.835 137.149 352.8Z" fill="#8ACCFB"/>
<path d="M135.981 351.38C136.335 351.427 136.693 351.45 137.05 351.447L221.644 350.807C226.181 350.773 229.89 346.553 229.882 341.416L229.586 146.31C229.579 141.35 225.929 137.304 221.478 137.283L138.509 136.922C138.378 136.922 138.248 136.922 138.118 136.93C136.035 137.027 134.079 137.978 132.621 139.606C131.131 141.269 130.302 143.474 130.283 145.817L128.799 342.239C128.768 346.896 131.842 350.826 135.981 351.38Z" fill="#3C3D3D"/>
<path d="M133.197 146.807L131.77 342.545L227.068 341.974L226.825 146.807H133.197Z" fill="white"/>
<path d="M160.789 146.807L183.387 177.497C183.387 177.51 183.387 177.523 183.387 177.536C183.164 183.563 196.052 183.576 196.445 177.549C196.445 177.536 196.445 177.524 196.445 177.51L174.158 146.807H160.789Z" fill="#FFD4CC"/>
<path d="M174.16 146.807L196.447 177.51C196.446 177.523 196.446 177.536 196.447 177.549C196.162 183.576 209.045 183.588 209.501 177.563C209.501 177.549 209.501 177.537 209.501 177.524L187.524 146.808L174.16 146.807Z" fill="#FF7D7D"/>
<path d="M147.416 146.807L170.322 177.484V177.523C170.322 177.546 170.322 177.569 170.322 177.592C170.122 183.202 183.046 183.884 183.389 177.536C183.389 177.523 183.389 177.51 183.389 177.497L160.791 146.807H147.416Z" fill="#FF7D7D"/>
<path d="M133.112 146.807L156.843 177.47V177.51C156.692 185.328 169.937 184.404 170.317 177.596C170.317 177.574 170.317 177.55 170.317 177.528V177.489L147.412 146.811L133.112 146.807Z" fill="#FFD4CC"/>
<path d="M227.607 146.808H214.251L235.604 177.55C235.604 177.564 235.604 177.576 235.604 177.589C235.136 183.613 248.456 183.626 249.103 177.603C249.103 177.59 249.103 177.578 249.108 177.564L227.607 146.808Z" fill="#FFD4CC"/>
<path d="M187.526 146.808L209.503 177.524C209.502 177.537 209.502 177.55 209.503 177.563C209.156 183.588 222.034 183.6 222.551 177.576C222.553 177.564 222.555 177.551 222.555 177.537L200.892 146.81L187.526 146.808Z" fill="#FFD4CC"/>
<path d="M200.892 146.807L222.555 177.534C222.554 177.547 222.554 177.561 222.555 177.574C222.146 183.597 235.021 183.61 235.6 177.587C235.601 177.574 235.601 177.561 235.6 177.548L214.248 146.805L200.892 146.807Z" fill="#FF7D7D"/>
<g style="mix-blend-mode:hard-light" opacity="0.1">
<path d="M183.383 177.536C183.04 183.884 170.116 183.202 170.316 177.592C169.936 184.404 156.688 185.327 156.841 177.505L183.383 177.536Z" fill="black"/>
</g>
<g style="mix-blend-mode:hard-light" opacity="0.1">
<path d="M183.386 177.536L196.444 177.549C196.051 183.576 183.163 183.563 183.386 177.536Z" fill="black"/>
</g>
<g style="mix-blend-mode:hard-light" opacity="0.1">
<path d="M196.446 177.549L209.5 177.563C209.044 183.588 196.161 183.575 196.446 177.549Z" fill="black"/>
</g>
<g style="mix-blend-mode:hard-light" opacity="0.1">
<path d="M209.503 177.563L222.551 177.576C222.034 183.6 209.157 183.588 209.503 177.563Z" fill="black"/>
</g>
<g style="mix-blend-mode:hard-light" opacity="0.1">
<path d="M222.554 177.576L235.6 177.589C235.019 183.612 222.145 183.6 222.554 177.576Z" fill="black"/>
</g>
<g style="mix-blend-mode:hard-light" opacity="0.1">
<path d="M249.101 177.603C248.454 183.625 235.134 183.612 235.602 177.589L249.101 177.603Z" fill="black"/>
</g>
<path d="M222.317 330.625H139.176V327.406L222.317 327.418V330.625Z" fill="#337ACC"/>
<path d="M222.317 299.327L139.176 299.205V295.985L222.317 296.122V299.327Z" fill="#337ACC"/>
<path d="M222.317 268.03L139.176 267.784V264.565L222.317 264.824V268.03Z" fill="#337ACC"/>
<path d="M222.317 236.734L139.176 236.364V233.146L222.317 233.527V236.734Z" fill="#337ACC"/>
<path d="M214.888 199.436L146.744 199.037C144.291 199.022 142.295 196.976 142.295 194.476C142.295 191.975 144.291 189.953 146.744 189.97L214.888 190.418C217.319 190.434 219.287 192.469 219.287 194.955C219.287 197.441 217.314 199.45 214.888 199.436ZM146.744 190.271C144.455 190.256 142.591 192.143 142.591 194.477C142.591 196.811 144.455 198.722 146.744 198.736L214.888 199.137C217.153 199.15 218.995 197.273 218.995 194.952C218.995 192.631 217.153 190.732 214.888 190.717L146.744 190.271Z" fill="#337ACC"/>
<path d="M214.889 190.568L207.799 190.525V199.249L214.889 199.29C217.237 199.304 219.142 197.364 219.142 194.958C219.142 192.552 217.237 190.584 214.889 190.568Z" fill="#337ACC"/>
<path d="M212.263 196.176C211.97 196.175 211.682 196.115 211.413 196C211.145 195.884 210.902 195.716 210.7 195.506C210.287 195.077 210.056 194.504 210.056 193.908C210.056 193.313 210.287 192.74 210.7 192.311C210.903 192.103 211.146 191.937 211.415 191.826C211.683 191.714 211.972 191.657 212.263 191.66C212.554 191.662 212.842 191.722 213.11 191.838C213.377 191.953 213.619 192.121 213.821 192.331C214.234 192.76 214.465 193.332 214.465 193.928C214.465 194.523 214.234 195.096 213.821 195.525C213.618 195.733 213.376 195.898 213.108 196.01C212.84 196.122 212.553 196.179 212.263 196.176V196.176ZM212.263 192.204C212.042 192.203 211.824 192.246 211.621 192.331C211.418 192.416 211.234 192.541 211.08 192.699C210.766 193.024 210.591 193.459 210.591 193.911C210.591 194.363 210.766 194.797 211.08 195.123C211.233 195.282 211.417 195.41 211.62 195.497C211.823 195.584 212.041 195.63 212.263 195.631C212.483 195.633 212.701 195.59 212.904 195.505C213.107 195.42 213.291 195.295 213.445 195.137C213.758 194.812 213.934 194.378 213.934 193.926C213.934 193.474 213.758 193.039 213.445 192.714C213.292 192.554 213.109 192.427 212.905 192.339C212.702 192.252 212.484 192.206 212.263 192.204V192.204Z" fill="white"/>
<path d="M215.115 197.259L213.444 195.522L213.821 195.14L215.491 196.877L215.115 197.259Z" fill="white"/>
<path d="M215.861 197.644C215.817 197.689 215.764 197.725 215.706 197.75C215.648 197.775 215.586 197.787 215.522 197.787C215.459 197.787 215.397 197.775 215.339 197.75C215.28 197.725 215.228 197.689 215.184 197.644L213.788 196.196L214.465 195.507L215.864 196.949C215.954 197.043 216.003 197.168 216.003 197.297C216.002 197.427 215.951 197.551 215.861 197.644V197.644Z" fill="white"/>
<path d="M165.614 230.522L142.295 230.412V206.596L165.614 206.732V230.522Z" fill="#7EBEFB"/>
<path d="M192.755 230.651L169.496 230.541V206.755L192.755 206.891V230.651Z" fill="#7EBEFB"/>
<path d="M219.221 230.776L196.021 230.666V206.91L219.221 207.046V230.776Z" fill="#7EBEFB"/>
<path d="M165.614 262.459L142.295 262.385V238.568L165.614 238.669V262.459Z" fill="#7EBEFB"/>
<path d="M192.755 262.547L169.496 262.472V238.687L192.755 238.787V262.547Z" fill="#7EBEFB"/>
<path d="M219.221 262.633L196.021 262.558V238.802L219.221 238.902V262.633Z" fill="#7EBEFB"/>
<path d="M165.614 293.84L142.295 293.801V269.984L165.614 270.05V293.84Z" fill="#7EBEFB"/>
<path d="M192.755 293.888L169.496 293.847V270.062L192.755 270.128V293.888Z" fill="#7EBEFB"/>
<path d="M219.221 293.934L196.021 293.893V270.137L219.221 270.204V293.934Z" fill="#7EBEFB"/>
<path d="M165.614 325.222L142.295 325.216V301.399L165.614 301.432V325.222Z" fill="#7EBEFB"/>
<path d="M192.755 325.229L169.496 325.223V301.438L192.755 301.469V325.229Z" fill="#7EBEFB"/>
<path d="M219.221 325.235L196.021 325.229V301.474L219.221 301.506V325.235Z" fill="#7EBEFB"/>
<path d="M160.345 224.628L159.824 224.469C159.835 224.431 160.736 220.488 160.807 218.988C160.894 217.182 160.341 215.582 159.209 214.362C157.913 212.966 155.941 212.158 153.797 212.147C151.701 212.135 149.877 212.847 148.661 214.153C147.543 215.352 147.012 216.999 147.113 218.914C147.2 220.428 147.954 224.238 147.961 224.276L147.43 224.384C147.399 224.226 146.656 220.496 146.571 218.942C146.458 216.871 147.044 215.083 148.267 213.77C149.587 212.353 151.551 211.581 153.797 211.593C156.089 211.606 158.204 212.477 159.601 213.983C160.839 215.316 161.443 217.057 161.349 219.017C161.274 220.584 160.39 224.47 160.345 224.628Z" fill="#337ACC"/>
<path d="M147.464 221.815L148.172 225.67C148.206 225.867 148.312 226.045 148.469 226.169C148.626 226.294 148.823 226.357 149.023 226.346L148.026 220.873C147.833 220.934 147.67 221.063 147.566 221.237C147.462 221.411 147.426 221.616 147.464 221.815V221.815Z" fill="#337ACC"/>
<path d="M149.122 226.334L150.645 226.051L149.638 220.568L148.115 220.852C148.086 220.858 148.058 220.865 148.028 220.873L149.025 226.346C149.057 226.344 149.09 226.34 149.122 226.334Z" fill="#337ACC"/>
<path d="M151.045 226.59C150.933 226.61 150.818 226.608 150.707 226.583C150.597 226.558 150.492 226.512 150.399 226.447C150.306 226.381 150.227 226.298 150.166 226.202C150.105 226.106 150.064 225.999 150.045 225.887L149.135 220.94C149.091 220.714 149.138 220.48 149.267 220.289C149.395 220.098 149.594 219.966 149.819 219.922V219.922C150.045 219.883 150.277 219.935 150.465 220.067C150.652 220.199 150.78 220.4 150.82 220.626L151.73 225.573C151.774 225.799 151.726 226.033 151.598 226.223C151.469 226.414 151.27 226.546 151.045 226.59V226.59Z" fill="#C1DFFB"/>
<path d="M160.369 221.936L159.567 225.762C159.528 225.958 159.418 226.132 159.258 226.252C159.097 226.371 158.898 226.427 158.699 226.408L159.828 220.976C160.019 221.042 160.18 221.176 160.28 221.353C160.38 221.53 160.411 221.737 160.369 221.936V221.936Z" fill="#337ACC"/>
<path d="M158.606 226.392L157.092 226.055L158.232 220.613L159.746 220.952C159.776 220.958 159.805 220.966 159.833 220.975L158.705 226.407C158.671 226.404 158.638 226.4 158.606 226.392V226.392Z" fill="#337ACC"/>
<path d="M156.674 226.58C156.784 226.604 156.899 226.605 157.01 226.585C157.121 226.564 157.227 226.522 157.322 226.459C157.417 226.397 157.498 226.317 157.561 226.223C157.624 226.129 157.668 226.023 157.69 225.912L158.72 220.998C158.769 220.772 158.727 220.537 158.604 220.342C158.48 220.147 158.286 220.009 158.061 219.956V219.956C157.951 219.932 157.837 219.93 157.725 219.951C157.614 219.971 157.508 220.014 157.413 220.076C157.318 220.138 157.237 220.219 157.174 220.313C157.111 220.407 157.067 220.512 157.045 220.623L156.015 225.539C155.966 225.764 156.008 225.999 156.131 226.194C156.255 226.389 156.449 226.527 156.674 226.58V226.58Z" fill="#C1DFFB"/>
<path d="M184.068 215.248L183.521 216.245L173.536 216.191V224.925L188.722 225V216.378L188.12 215.271L184.068 215.248Z" fill="#CBE4FB"/>
<path d="M182.882 216.681L179.381 216.662V215.223L182.882 215.242V216.681Z" fill="#CBE4FB"/>
<path d="M178.213 216.656L174.711 216.637V215.198L178.213 215.216V216.656Z" fill="#CBE4FB"/>
<path d="M188.722 223.308L173.536 223.231V218.19L188.722 218.271V223.308Z" fill="#337ACC"/>
<path d="M187.666 220.784C187.666 222.749 186.108 224.334 184.186 224.325C182.263 224.315 180.704 222.714 180.704 220.749C180.704 218.783 182.266 217.198 184.186 217.208C186.105 217.218 187.666 218.823 187.666 220.784Z" fill="#337ACC"/>
<path d="M186.885 220.78C186.885 222.304 185.676 223.533 184.186 223.525C182.696 223.517 181.487 222.277 181.487 220.752C181.487 219.228 182.696 218 184.186 218.008C185.676 218.016 186.885 219.257 186.885 220.78Z" fill="#CBE4FB"/>
<path d="M185.477 220.773C185.479 220.944 185.447 221.114 185.383 221.272C185.32 221.431 185.225 221.576 185.105 221.698C184.985 221.82 184.842 221.917 184.684 221.983C184.527 222.05 184.357 222.084 184.186 222.085C183.84 222.079 183.51 221.936 183.268 221.688C183.026 221.44 182.892 221.106 182.896 220.76C182.894 220.589 182.926 220.419 182.99 220.26C183.054 220.102 183.149 219.958 183.269 219.836C183.389 219.714 183.531 219.617 183.689 219.55C183.846 219.483 184.015 219.448 184.186 219.446C184.533 219.452 184.863 219.595 185.105 219.844C185.346 220.092 185.48 220.426 185.477 220.773V220.773Z" fill="#337ACC"/>
<path d="M162.984 288.87C162.865 286.474 157.506 284.964 157.506 284.964C157.506 284.964 152.6 279.565 150.549 276.859C147.057 278.221 146.224 279.91 146.744 282.849C148.446 281.403 151.35 284.064 154.878 288.853L162.984 288.87Z" fill="#337ACC"/>
<path d="M146.745 282.854L147.91 289.103H148.472C148.627 286.293 148.978 283.106 150.838 284.126C150.838 281.617 146.745 281.608 146.745 282.854Z" fill="#337ACC"/>
<path d="M155.533 242.316C155.428 242.002 155.359 241.676 155.33 241.346H155.07C155.06 241.61 155.02 241.872 154.953 242.128C154.77 242.812 154.258 243.327 153.651 243.357C153.043 243.322 152.528 242.803 152.349 242.117C152.281 241.862 152.242 241.6 152.231 241.336H151.971C151.942 241.665 151.874 241.99 151.768 242.303C151.507 243.035 151.08 243.698 150.521 244.239L150.937 248.145L153.541 248.156H153.769L156.373 248.166L156.788 244.265C156.227 243.72 155.797 243.053 155.533 242.316Z" fill="#D5E9FB"/>
<path d="M159.704 258.392C158.546 259.577 149.028 259.665 147.585 258.351C148.235 254.658 149.086 251.09 150.928 248.141L156.365 248.162C158.011 250.72 158.952 254.406 159.704 258.392Z" fill="#D5E9FB"/>
<path d="M154.119 249.087C151.917 249.078 150.875 248.132 150.832 248.095C150.816 248.08 150.807 248.06 150.806 248.038C150.805 248.016 150.812 247.995 150.826 247.978C150.833 247.97 150.841 247.964 150.851 247.959C150.861 247.954 150.871 247.952 150.882 247.951C150.892 247.951 150.903 247.952 150.913 247.956C150.923 247.96 150.932 247.966 150.94 247.973C150.951 247.982 151.982 248.912 154.119 248.921C156.02 248.927 156.282 248.146 156.284 248.14C156.286 248.128 156.291 248.118 156.297 248.109C156.304 248.1 156.312 248.092 156.322 248.086C156.332 248.08 156.343 248.077 156.354 248.075C156.365 248.074 156.376 248.075 156.387 248.079C156.398 248.082 156.408 248.087 156.417 248.095C156.425 248.102 156.432 248.111 156.437 248.122C156.442 248.132 156.445 248.143 156.445 248.154C156.445 248.166 156.443 248.177 156.439 248.187C156.428 248.224 156.157 249.095 154.119 249.088V249.087Z" fill="#337ACC"/>
<path d="M153.896 250.585C153.861 250.582 153.828 250.572 153.797 250.555C153.767 250.537 153.742 250.513 153.722 250.484C153.325 249.987 154.316 249.048 154.431 248.943L154.609 248.779L154.565 249.021C154.503 249.368 154.274 250.496 153.946 250.579C153.93 250.583 153.913 250.585 153.896 250.585V250.585ZM154.351 249.253C154.043 249.582 153.637 250.121 153.846 250.382C153.861 250.402 153.885 250.426 153.903 250.42C154.038 250.383 154.225 249.828 154.35 249.253H154.351Z" fill="#337ACC"/>
<path d="M154.396 249.203L154.402 249C154.402 248.951 154.434 247.785 154.882 247.394C154.937 247.344 155.002 247.307 155.073 247.285C155.144 247.264 155.22 247.258 155.293 247.269C155.351 247.27 155.408 247.289 155.455 247.323C155.502 247.357 155.538 247.405 155.558 247.459C155.697 247.886 154.733 248.869 154.539 249.062L154.396 249.203ZM155.22 247.43C155.135 247.428 155.051 247.459 154.988 247.517C154.7 247.767 154.607 248.437 154.577 248.785C154.984 248.355 155.477 247.734 155.404 247.508C155.399 247.492 155.384 247.445 155.272 247.43C155.255 247.429 155.237 247.43 155.22 247.432V247.43Z" fill="#337ACC"/>
<path d="M156.023 250.418C156.008 250.418 155.993 250.413 155.98 250.405C155.967 250.397 155.957 250.385 155.95 250.371C155.8 250.069 155.59 249.8 155.335 249.579C155.079 249.359 154.782 249.191 154.462 249.086C154.441 249.079 154.424 249.065 154.414 249.047C154.403 249.028 154.4 249.006 154.404 248.986C154.407 248.975 154.411 248.965 154.418 248.957C154.424 248.948 154.432 248.941 154.441 248.935C154.451 248.93 154.461 248.926 154.471 248.925C154.482 248.923 154.493 248.924 154.503 248.926C154.848 249.035 155.167 249.213 155.44 249.449C155.714 249.685 155.937 249.974 156.096 250.299C156.105 250.319 156.105 250.341 156.099 250.361C156.092 250.381 156.077 250.399 156.059 250.409C156.048 250.415 156.036 250.418 156.023 250.418V250.418Z" fill="#337ACC"/>
<path d="M183.303 307.792C183.182 307.432 183.104 307.059 183.07 306.681H182.771C182.759 306.983 182.713 307.282 182.637 307.574C182.427 308.36 181.839 308.953 181.141 308.99C180.447 308.951 179.855 308.357 179.645 307.572C179.568 307.279 179.523 306.98 179.511 306.678H179.212C179.178 307.056 179.1 307.428 178.979 307.788C178.679 308.629 178.191 309.39 177.552 310.013L178.028 314.49H181.011H181.271H184.253L184.729 310.015C184.091 309.393 183.603 308.632 183.303 307.792V307.792Z" fill="#D5E9FB"/>
<path d="M185.974 318.035C185.484 316.721 184.92 315.523 184.254 314.49L178.026 314.484C177.337 315.609 176.756 316.796 176.29 318.03C177.679 319.485 184.729 319.728 185.974 318.035Z" fill="#D5E9FB"/>
<path d="M181.682 315.559C179.159 315.559 177.966 314.48 177.916 314.431C177.898 314.414 177.887 314.39 177.886 314.365C177.885 314.341 177.893 314.316 177.909 314.297C177.917 314.287 177.927 314.279 177.938 314.274C177.949 314.268 177.961 314.264 177.973 314.264C177.986 314.263 177.998 314.265 178.01 314.27C178.021 314.274 178.032 314.281 178.04 314.29C178.053 314.301 179.237 315.364 181.686 315.366C183.863 315.366 184.162 314.469 184.166 314.46C184.169 314.448 184.175 314.437 184.183 314.427C184.19 314.418 184.2 314.41 184.211 314.404C184.221 314.398 184.233 314.395 184.245 314.393C184.257 314.392 184.27 314.393 184.281 314.397C184.305 314.405 184.325 314.421 184.336 314.443C184.348 314.465 184.351 314.49 184.344 314.514C184.332 314.557 184.02 315.556 181.686 315.556L181.682 315.559Z" fill="#337ACC"/>
<path d="M181.427 317.279C181.386 317.277 181.347 317.265 181.312 317.245C181.277 317.225 181.247 317.198 181.224 317.164C180.769 316.595 181.905 315.515 182.036 315.394L182.24 315.205L182.19 315.482C182.118 315.877 181.856 317.173 181.48 317.272C181.463 317.276 181.445 317.278 181.427 317.279V317.279ZM181.947 315.749C181.595 316.128 181.131 316.746 181.369 317.044C181.388 317.067 181.414 317.094 181.435 317.088C181.59 317.047 181.804 316.409 181.947 315.749H181.947Z" fill="#337ACC"/>
<path d="M182 315.691L182.005 315.459C182.005 315.402 182.043 314.064 182.556 313.615C182.618 313.557 182.693 313.514 182.775 313.489C182.856 313.464 182.942 313.458 183.027 313.47C183.228 313.497 183.303 313.604 183.33 313.687C183.489 314.177 182.385 315.308 182.163 315.529L182 315.691ZM182.943 313.654C182.844 313.654 182.749 313.692 182.677 313.759C182.348 314.046 182.243 314.815 182.207 315.215C182.673 314.721 183.238 314.006 183.154 313.747C183.148 313.73 183.131 313.676 183.003 313.66C182.983 313.658 182.963 313.657 182.943 313.657V313.654Z" fill="#337ACC"/>
<path d="M183.863 317.08C183.845 317.081 183.827 317.077 183.811 317.067C183.796 317.058 183.784 317.044 183.776 317.027C183.229 315.879 182.083 315.562 182.072 315.559C182.048 315.552 182.027 315.536 182.015 315.514C182.002 315.493 181.999 315.467 182.005 315.443C182.008 315.431 182.013 315.42 182.02 315.41C182.028 315.4 182.037 315.391 182.048 315.385C182.058 315.379 182.07 315.375 182.082 315.373C182.094 315.371 182.107 315.372 182.119 315.375C182.513 315.499 182.878 315.702 183.191 315.972C183.505 316.242 183.76 316.572 183.941 316.944C183.952 316.966 183.954 316.992 183.946 317.016C183.938 317.039 183.921 317.059 183.899 317.07C183.888 317.076 183.876 317.079 183.863 317.08Z" fill="#337ACC"/>
<path d="M178.447 244.882C178.447 244.882 180.083 245.434 182.479 244.816C184.013 246.712 181.31 247.617 179.623 247.205C177.936 246.794 178.447 244.882 178.447 244.882Z" fill="#CBE4FB"/>
<path d="M182.479 244.816C182.346 245.332 182.081 245.785 181.59 246.073C180.442 246.749 178.96 246.025 178.447 244.882C177.538 245 176.742 245.179 176.171 245.389V258.47L185.202 258.501V245.426C184.395 245.11 183.454 244.916 182.479 244.816Z" fill="#337ACC"/>
<path d="M176.17 245.39L172.278 248.454L174.838 251.883L178.648 248.995L176.17 245.39Z" fill="#337ACC"/>
<path d="M185.231 245.426L189.123 248.518L186.566 251.926L182.756 249.011L185.231 245.426Z" fill="#337ACC"/>
<path d="M198.984 256.371H198.805V257.153C198.805 257.153 208.526 257.859 212.355 257.199C216.184 256.54 216.442 255.252 216.442 255.252V254.452H216.311L198.984 256.371Z" fill="#337ACC"/>
<path d="M216.29 254.827C215.287 256.153 212.249 256.549 208.446 256.6C206.884 256.623 205.185 256.585 203.448 256.529C201.973 256.479 200.464 256.418 198.984 256.371C198.838 255.259 199.223 253.192 199.527 252.053C199.587 251.795 199.67 251.544 199.774 251.3L199.831 251.28C200.338 251.982 201.581 252.408 202.317 252.395C203.52 252.37 204.876 251.527 204.487 250.515C204.429 250.393 204.379 250.267 204.34 250.138C204.031 249.129 204.877 249.124 206.145 249.913C207.92 251.055 209.917 251.808 212.003 252.122C212.338 252.176 212.654 252.22 212.958 252.258C215.22 252.55 216.493 252.563 216.29 254.827Z" fill="#D5E9FB"/>
<path d="M216.162 254.827C215.161 256.152 212.123 256.549 208.32 256.599C208.209 256.04 208.114 254.572 210.071 254.212C211.557 253.942 212.4 252.969 212.829 252.257C215.09 252.549 216.365 252.562 216.162 254.827Z" fill="#337ACC"/>
<path d="M203.321 256.529C201.846 256.48 200.336 256.419 198.856 256.371C198.71 255.26 199.096 253.192 199.4 252.053C200.66 252.501 202.899 253.687 203.321 256.529Z" fill="#337ACC"/>
<path d="M212.005 252.122C211.717 252.579 211.272 252.594 210.845 252.592C207.001 252.322 205.051 250.791 204.341 250.138C204.032 249.129 204.879 249.124 206.147 249.913C207.922 251.055 209.918 251.808 212.005 252.122V252.122Z" fill="#337ACC"/>
<path d="M207.437 256.745C205.465 256.738 203.492 256.627 201.882 256.536C200.464 256.455 199.343 256.392 198.886 256.449L198.812 256.458L198.794 256.306L198.868 256.297C199.339 256.241 200.465 256.305 201.89 256.384C206.404 256.639 214.804 257.114 216.249 254.413L216.284 254.346L216.415 254.419L216.38 254.486C215.381 256.347 211.413 256.759 207.437 256.745Z" fill="#D5E9FB"/>
<path d="M210.277 226.694L205.391 226.67V211.461L210.277 211.489V226.694Z" fill="#337ACC"/>
<path d="M211.948 218.872C211.948 221.313 210.013 223.284 207.627 223.272C205.241 223.259 203.305 221.269 203.305 218.826C203.305 216.382 205.24 214.413 207.627 214.426C210.014 214.439 211.948 216.43 211.948 218.872Z" fill="#CBE4FB"/>
<path d="M211.106 218.868C211.106 220.834 209.548 222.42 207.627 222.41C205.706 222.401 204.147 220.797 204.147 218.831C204.147 216.865 205.71 215.279 207.627 215.289C209.545 215.3 211.106 216.902 211.106 218.868Z" fill="#337ACC"/>
<path d="M204.103 216.872L203.549 216.471L204.208 215.515L204.761 215.916L204.103 216.872Z" fill="#CBE4FB"/>
<path d="M203.578 218.833L202.907 218.922L203.061 220.085L203.731 219.997L203.578 218.833Z" fill="#CBE4FB"/>
<path d="M211.121 216.886L211.679 216.499L211.034 215.526L210.476 215.913L211.121 216.886Z" fill="#CBE4FB"/>
<path d="M211.488 220.069L212.158 220.164L212.31 219.003L211.64 218.907L211.488 220.069Z" fill="#CBE4FB"/>
<path d="M207.636 219.041L205.938 218.136C205.901 218.115 205.873 218.079 205.86 218.038C205.847 217.997 205.85 217.952 205.868 217.912C205.877 217.893 205.891 217.876 205.907 217.862C205.923 217.848 205.942 217.837 205.962 217.83C205.983 217.824 206.004 217.822 206.026 217.824C206.047 217.826 206.068 217.832 206.087 217.842L207.619 218.658L209.777 217.254C209.795 217.243 209.815 217.235 209.836 217.231C209.857 217.227 209.879 217.228 209.899 217.233C209.92 217.237 209.94 217.246 209.957 217.259C209.975 217.271 209.989 217.287 210.001 217.306C210.024 217.343 210.031 217.387 210.022 217.43C210.013 217.473 209.987 217.511 209.951 217.535L207.636 219.041Z" fill="#CBE4FB"/>
<path d="M172.764 285.648C173.573 285.902 174.736 286.105 176.063 286.251C178.41 286.496 180.771 286.575 183.129 286.487C185.356 286.4 187.216 286.14 187.916 285.68C187.916 285.68 189.403 276.664 180.641 276.442C180.543 276.442 180.444 276.438 180.343 276.438C171.244 276.414 172.764 285.648 172.764 285.648Z" fill="#337ACC"/>
<path d="M176.063 286.252C178.41 286.496 180.771 286.575 183.129 286.488C184.366 278.298 180.832 276.531 180.641 276.442H180.634H180.343C175.727 279.062 175.952 284.944 176.063 286.252Z" fill="#CBE4FB"/>
<path d="M186.967 286.023C186.967 286.023 184.489 290.23 172.988 289.256C168.065 288.838 172.763 285.648 172.763 285.648C175.866 286.411 181.834 286.773 186.967 286.023Z" fill="#599FE1"/>
<path d="M204.865 278.966L210.164 278.978C211.634 278.989 213.039 279.582 214.073 280.627C215.107 281.672 215.684 283.084 215.678 284.554C215.671 285.786 215.287 286.877 214.361 287.448L200.386 287.42C199.504 286.998 199.164 285.535 199.398 283.782C199.774 281.006 202.125 278.959 204.865 278.966Z" fill="#337ACC"/>
<path d="M205.668 279.11V279.063C205.708 278.557 205.938 278.085 206.312 277.742C206.685 277.398 207.174 277.208 207.681 277.209C208.188 277.211 208.677 277.403 209.048 277.749C209.419 278.094 209.647 278.567 209.685 279.073L209.689 279.12H210.373L210.364 279.014C210.33 278.325 210.034 277.675 209.535 277.198C209.036 276.721 208.373 276.455 207.683 276.453C206.993 276.451 206.328 276.715 205.827 277.189C205.326 277.663 205.026 278.312 204.989 279.001L204.979 279.107L205.668 279.11Z" fill="#337ACC"/>
<path d="M207.038 287.432L205.728 287.43V282.185L207.038 282.188V287.432Z" fill="#D5E9FB"/>
<path d="M209.632 287.438L208.322 287.436V282.191L209.632 282.195V287.438Z" fill="#D5E9FB"/>
<path d="M161.41 319.095C159.366 320.856 148.751 320.851 147.013 319.087C146.692 315.702 147.039 312.7 147.977 310.048C152.143 309.18 156.298 309.219 160.447 310.06C161.414 312.48 161.835 316.396 161.41 319.095Z" fill="#337ACC"/>
<path d="M147.978 310.05C147.978 310.05 148.8 315.129 154.58 315.098C160.36 315.067 160.448 310.064 160.448 310.064C160.448 310.064 154.521 308.574 147.978 310.05Z" fill="#599FE1"/>
<path d="M154.211 316.895C154.06 316.893 153.916 316.832 153.81 316.724C153.704 316.616 153.646 316.471 153.647 316.32V314.237C153.646 314.162 153.66 314.088 153.688 314.018C153.716 313.949 153.757 313.886 153.81 313.833C153.862 313.779 153.924 313.737 153.993 313.707C154.062 313.678 154.136 313.663 154.211 313.662V313.662C154.362 313.664 154.506 313.726 154.611 313.834C154.717 313.941 154.775 314.087 154.774 314.238V316.321C154.775 316.472 154.716 316.617 154.611 316.724C154.505 316.832 154.361 316.893 154.211 316.895V316.895Z" fill="#CBE4FB"/>
<path d="M206.087 307.543C206.087 307.543 207.576 308.04 209.757 307.472C211.152 309.196 208.692 310.027 207.157 309.656C205.622 309.286 206.087 307.543 206.087 307.543Z" fill="#337ACC"/>
<path d="M209.757 307.472C209.636 307.942 209.394 308.355 208.948 308.62C207.907 309.239 206.554 308.583 206.084 307.543C205.379 307.625 204.684 307.782 204.013 308.012V319.931H212.233V308.02C211.501 307.734 210.644 307.56 209.757 307.472Z" fill="#D5E9FB"/>
<path d="M204.016 308.012L200.475 310.814L202.803 313.931L206.27 311.289L204.016 308.012Z" fill="#D5E9FB"/>
<path d="M212.263 308.021L215.805 310.828L213.478 313.94L210.01 311.293L212.263 308.021Z" fill="#D5E9FB"/>
<path d="M210.967 311.475H208.561V313.937H210.967V311.475Z" fill="#337ACC"/>
<path d="M174.758 130.274C176.952 130.274 178.73 128.496 178.73 126.302C178.73 124.108 176.952 122.33 174.758 122.33C172.564 122.33 170.786 124.108 170.786 126.302C170.786 128.496 172.564 130.274 174.758 130.274Z" fill="white"/>
<path d="M188.818 113.853L190.504 111.933C181.048 102.441 166.309 102.792 157.316 112.715L159.095 114.549C167.157 105.684 180.343 105.375 188.818 113.853Z" fill="white"/>
<path d="M185.317 117.838L187.004 115.919C179.584 108.527 168.07 108.801 161.01 116.526L162.787 118.36C168.916 111.691 178.877 111.457 185.317 117.838Z" fill="white"/>
<path d="M181.927 121.694L183.613 119.774C178.164 114.414 169.775 114.609 164.583 120.208L166.361 122.042C170.622 117.503 177.459 117.346 181.927 121.694Z" fill="white"/>
<path d="M305.923 189.689H251.49C247.758 189.689 244.733 192.714 244.733 196.446C244.733 200.177 247.758 203.202 251.49 203.202H305.923C309.655 203.202 312.68 200.177 312.68 196.446C312.68 192.714 309.655 189.689 305.923 189.689Z" fill="white"/>
<path d="M255.583 193.581L256.294 195.769H258.594L256.733 197.122L257.444 199.31L255.583 197.958L253.722 199.31L254.433 197.122L252.572 195.769H254.872L255.583 193.581Z" fill="#FFF37C"/>
<path d="M266.893 193.581L267.604 195.769H269.904L268.043 197.122L268.754 199.31L266.893 197.958L265.031 199.31L265.742 197.122L263.881 195.769H266.182L266.893 193.581Z" fill="#FFF37C"/>
<path d="M278.203 193.581L278.913 195.769H281.214L279.353 197.122L280.064 199.31L278.203 197.958L276.342 199.31L277.052 197.122L275.191 195.769H277.492L278.203 193.581Z" fill="#FFF37C"/>
<path d="M289.512 193.581L290.223 195.769H292.523L290.662 197.122L291.373 199.31L289.512 197.958L287.65 199.31L288.361 197.122L286.5 195.769H288.801L289.512 193.581Z" fill="#FFF37C"/>
<path d="M300.822 193.581L301.533 195.769H303.834L301.972 197.122L302.683 199.31L300.822 197.958L298.961 199.31L299.672 197.122L297.811 195.769H300.111L300.822 193.581Z" fill="#FFF37C"/>
<path d="M280.718 122.934H240.265C238.856 122.934 237.714 124.076 237.714 125.485V148.602C237.714 150.011 238.856 151.153 240.265 151.153H280.718C282.127 151.153 283.269 150.011 283.269 148.602V125.485C283.269 124.076 282.127 122.934 280.718 122.934Z" fill="#7EBEFB"/>
<path d="M245.413 130.063H248.759V128.724C248.759 128.618 248.738 128.513 248.698 128.414C248.657 128.316 248.597 128.227 248.522 128.152C248.447 128.077 248.358 128.017 248.26 127.977C248.162 127.936 248.056 127.915 247.95 127.915H243.269V131.154C243.269 131.348 243.166 131.502 242.972 131.502C242.779 131.502 242.702 131.345 242.702 131.154V127.919H241.892C241.785 127.919 241.68 127.939 241.582 127.98C241.484 128.021 241.395 128.08 241.32 128.155C241.245 128.231 241.185 128.32 241.145 128.418C241.104 128.516 241.083 128.621 241.083 128.727V132.646H245.47C245.537 132.645 245.602 132.668 245.653 132.711C245.703 132.755 245.736 132.815 245.745 132.881C245.749 132.917 245.745 132.954 245.734 132.989C245.723 133.024 245.704 133.056 245.679 133.083C245.655 133.11 245.625 133.131 245.591 133.146C245.558 133.161 245.522 133.168 245.485 133.168H241.079V134.785C241.079 134.891 241.1 134.997 241.14 135.095C241.181 135.193 241.24 135.282 241.315 135.357C241.391 135.432 241.48 135.492 241.578 135.533C241.676 135.573 241.781 135.594 241.887 135.594H247.946C248.16 135.594 248.366 135.509 248.518 135.357C248.67 135.206 248.755 135 248.755 134.785V130.6H245.394C245.357 130.6 245.32 130.592 245.286 130.577C245.252 130.562 245.221 130.539 245.196 130.512C245.172 130.484 245.153 130.452 245.141 130.416C245.129 130.381 245.125 130.343 245.129 130.306C245.137 130.238 245.171 130.175 245.224 130.13C245.276 130.085 245.344 130.061 245.413 130.063V130.063Z" fill="#FFE5A6"/>
<path d="M279.848 143.295H270.567V147.978H279.848V143.295Z" fill="#337ACC"/>
<path d="M249.743 138.445H241.083V140.631H249.743V138.445Z" fill="#337ACC"/>
<path d="M259.783 138.445H250.962V140.631H259.783V138.445Z" fill="#337ACC"/>
<path d="M279.796 138.445H270.785V140.631H279.796V138.445Z" fill="#337ACC"/>
<path d="M269.499 138.445H261.163V140.631H269.499V138.445Z" fill="#337ACC"/>
<path d="M267.844 143.295H241.136V146.116H267.844V143.295Z" fill="#337ACC"/>
<path d="M279.848 125.588H268.357V128.878H279.848V125.588Z" fill="#337ACC"/>
<path d="M116.232 132.214C113.194 124.452 108.854 124.56 75.4849 124.56C74.0116 124.56 72.5986 123.975 71.5568 122.933C70.515 121.892 69.9297 120.479 69.9297 119.005V109.572C69.9297 108.098 70.515 106.685 71.5568 105.644C72.5986 104.602 74.0116 104.017 75.4849 104.017H110.677C112.15 104.017 113.563 104.602 114.605 105.644C115.647 106.685 116.232 108.098 116.232 109.572V132.214Z" fill="white"/>
<path d="M79.4487 114.229C79.6271 113.202 78.9394 112.225 77.9127 112.046C76.8859 111.868 75.9088 112.555 75.7304 113.582C75.5519 114.609 76.2396 115.586 77.2664 115.765C78.2932 115.943 79.2702 115.255 79.4487 114.229Z" fill="#0088E8"/>
<path d="M89.2247 114.532C89.5692 113.548 89.051 112.472 88.0674 112.127C87.0838 111.783 86.0072 112.301 85.6628 113.284C85.3183 114.268 85.8364 115.345 86.82 115.689C87.8037 116.034 88.8803 115.515 89.2247 114.532Z" fill="#0088E8"/>
<path d="M99.1281 114.326C99.3675 113.312 98.7393 112.296 97.725 112.056C96.7107 111.817 95.6944 112.445 95.455 113.459C95.2156 114.474 95.8437 115.49 96.8581 115.729C97.8724 115.969 98.8887 115.341 99.1281 114.326Z" fill="#0088E8"/>
<path d="M108.482 115.234C109.219 114.497 109.219 113.302 108.482 112.565C107.746 111.828 106.551 111.828 105.814 112.565C105.077 113.302 105.077 114.497 105.814 115.234C106.551 115.971 107.746 115.971 108.482 115.234Z" fill="#0088E8"/>
<path d="M333.439 197.894C334.245 194.479 332.13 191.057 328.715 190.251C325.3 189.446 321.879 191.56 321.073 194.975C320.267 198.39 322.382 201.812 325.796 202.618C329.211 203.423 332.633 201.309 333.439 197.894Z" fill="#18C787"/>
<path d="M326.885 199.427L323.986 194.762L324.491 194.244L326.912 196.598L334.418 190.093L334.892 190.713L326.885 199.427Z" fill="white"/>
</svg>
